<svg viewBox="0 0 800 800" xmlns="http://www.w3.org/2000/svg"><path d="M504.1569053993684,235.03653717556696 L504.1627012318429,227.43000801791604 M504.1627012318429,227.43000801791604 L524.7567637407108,242.23560876676504 M524.7567637407108,242.23560876676504 L539.1072681853275,259.3053498283663 M539.1072681853275,259.3053498283663 L546.4908544582147,277.78601047074403 M546.4908544582147,277.78601047074403 L546.531832603104,296.752403303782 M546.531832603104,296.752403303782 L539.2220864344528,315.25349165996 M539.2220864344528,315.25349165996 L524.9226809596894,332.3600422006016 M524.9226809596894,332.3600422006016 L504.34685551186885,347.2115436470542 M504.34685551186885,347.2115436470542 L478.5250085537024,359.05988159127844 M478.5250085537024,359.05988159127844 L448.75329717693535,367.3075269789325 M448.75329717693535,367.3075269789325 L416.5283763866216,371.5381772508609 M416.5283763866216,371.5381772508609 L383.4716236133785,371.5381772508609 M383.4716236133785,371.5381772508609 L351.2467028230647,367.3075269789325 M351.2467028230647,367.3075269789325 L321.4749914462976,359.0598815912783 M321.4749914462976,359.0598815912783 L295.6531444881309,347.211543647054 M295.6531444881309,347.211543647054 L275.0773190403106,332.3600422006016 M275.0773190403106,332.3600422006016 L260.7779135655473,315.25349165996 M260.7779135655473,315.25349165996 L253.46816739689612,296.752403303782 M253.46816739689612,296.752403303782 L253.5091455417853,277.78601047074403 M253.5091455417853,277.78601047074403 L260.8927318146725,259.3053498283663 M260.8927318146725,259.3053498283663 L275.24323625928923,242.23560876676504 M275.24323625928923,242.23560876676504 L295.8372987681573,227.43000801791584 M295.8372987681573,227.43000801791584 L321.6409087775834,215.62757080455117 M321.6409087775834,215.62757080455117 L351.3615212122345,207.41673496375756 M351.3615212122345,207.41673496375756 L383.51260182059343,203.20651244908444 M383.51260182059343,203.20651244908444 L416.4873981794066,203.20651244908444 M416.4873981794066,203.20651244908444 L448.63847878776556,207.41673496375776 M448.63847878776556,207.41673496375776 L478.35909122241674,215.62757080455117 M478.35909122241674,215.62757080455117 L504.1627012318429,227.43000801791604 M504.1569053993684,235.03653717556696 L478.3547319167342,223.23343156672476 M478.3547319167342,223.23343156672476 L448.63577323956844,215.0221305950155 M448.63577323956844,215.0221305950155 L416.48648111376497,210.81166953491842 M416.48648111376497,210.81166953491842 L383.5135188862351,210.81166953491842 M383.5135188862351,210.81166953491842 L351.3642267604316,215.0221305950155 M351.3642267604316,215.0221305950155 L321.6452680832659,223.23343156672476 M321.6452680832659,223.23343156672476 L295.8430946006312,235.03653717556716 M295.8430946006312,235.03653717556716 L275.25017950572726,249.84297607145942 M275.25017950572726,249.84297607145942 L260.900475677945,266.91368300651214 M260.900475677945,266.91368300651214 L253.51730265989843,285.39538881815326 M253.51730265989843,285.39538881815326 L253.47632907913044,304.3628537075957 M253.47632907913044,304.3628537075957 L260.78567021720954,322.86498724998376 M260.78567021720954,322.86498724998376 L275.0842807665168,339.9725036946115 M275.0842807665168,339.9725036946115 L295.658960831615,354.82484332618105 M295.658960831615,354.82484332618105 L321.4793692317734,366.67384970395227 M321.4793692317734,366.67384970395227 L351.2494211596828,374.9219602530493 M351.2494211596828,374.9219602530493 L383.4725452431553,379.1528490873419 M383.4725452431553,379.1528490873419 L416.52745475684475,379.1528490873419 M416.52745475684475,379.1528490873419 L448.75057884031725,374.9219602530494 M448.75057884031725,374.9219602530494 L478.5206307682267,366.67384970395227 M478.5206307682267,366.67384970395227 L504.3410391683861,354.8248433261805 M504.3410391683861,354.8248433261805 L524.9157192334833,339.9725036946115 M524.9157192334833,339.9725036946115 L539.2143297827905,322.86498724998376 M539.2143297827905,322.86498724998376 L546.5236709208696,304.3628537075958 M546.5236709208696,304.3628537075958 L546.4826973401016,285.3953888181533 M546.4826973401016,285.3953888181533 L539.0995243220551,266.91368300651214 M539.0995243220551,266.91368300651214 L524.7498204942727,249.84297607145942 M524.7498204942727,249.84297607145942 L504.1569053993684,235.03653717556696 M298.1285025229366,353.4060177507772 L278.0401501265206,338.9054317847882 M278.0401501265206,338.9054317847882 L264.0790750948056,322.2028927017656 M264.0790750948056,322.2028927017656 L256.9417263576967,304.13852617560076 M256.9417263576967,304.13852617560076 L256.98078500829,285.61959238949737 M256.98078500829,285.61959238949737 L264.18851502093065,267.57469888586894 M264.18851502093065,267.57469888586894 L278.19829543454017,250.90724898443585 M278.19829543454017,250.90724898443585 L298.3040306212153,236.4504185357016 M298.3040306212153,236.4504185357016 L323.4962547883505,224.92589829442755 M323.4962547883505,224.92589829442755 L352.5130202830709,216.90835075971088 M352.5130202830709,216.90835075971088 L383.90290932778845,212.79722047640763 M383.90290932778845,212.79722047640763 L416.09709067221155,212.79722047640763 M416.09709067221155,212.79722047640763 L447.4869797169291,216.90835075971088 M447.4869797169291,216.90835075971088 L476.5037452116496,224.92589829442755 M476.5037452116496,224.92589829442755 L501.695969378785,236.4504185357016 M501.695969378785,236.4504185357016 L521.8017045654599,250.90724898443585 M521.8017045654599,250.90724898443585 L535.8114849790694,267.574698885869 M535.8114849790694,267.574698885869 L543.0192149917101,285.6195923894974 M543.0192149917101,285.6195923894974 L543.0582736423033,304.138526175601 M543.0582736423033,304.138526175601 L535.9209249051945,322.2028927017658 M535.9209249051945,322.2028927017658 L521.9598498734795,338.9054317847882 M521.9598498734795,338.9054317847882 L501.8714974770633,353.4060177507773 M501.8714974770633,353.4060177507773 L476.6618906217013,364.9742935460515 M476.6618906217013,364.9742935460515 L447.5964197702861,373.0269303261507 M447.5964197702861,373.0269303261507 L416.1361493794284,377.15753367710147 M416.1361493794284,377.15753367710147 L383.86385062057167,377.15753367710147 M383.86385062057167,377.15753367710147 L352.4035802297139,373.0269303261507 M352.4035802297139,373.0269303261507 L323.3381093782988,364.9742935460515 M323.3381093782988,364.9742935460515 L298.1285025229366,353.4060177507772 M298.1285025229366,353.4060177507772 L298.1228239592618,345.7927981267833 M298.1228239592618,345.7927981267833 L323.3338353307518,357.36042129563606 M323.3338353307518,357.36042129563606 L352.40092632318374,365.4126039144853 M352.40092632318374,365.4126039144853 L383.8629508378192,369.54297434456055 M383.8629508378192,369.54297434456055 L416.13704916218086,369.54297434456055 M416.13704916218086,369.54297434456055 L447.5990736768163,365.4126039144853 M447.5990736768163,365.4126039144853 L476.66616466924825,357.36042129563606 M476.66616466924825,357.36042129563606 L501.87717604073873,345.79279812678305 M501.87717604073873,345.79279812678305 L521.9666467581092,331.29303052445164 M521.9666467581092,331.29303052445164 L535.9284979832012,314.59143450378815 M535.9284979832012,314.59143450378815 L543.0662422681326,296.52808844750734 M543.0662422681326,296.52808844750734 L543.0271792667255,278.0102013664709 M543.0271792667255,278.0102013664709 L535.8190458663631,259.9663283165719 M535.8190458663631,259.9663283165719 L521.8084838339909,243.29982144838976 M521.8084838339909,243.29982144838976 L501.7016283900529,228.84380932701862 M501.7016283900529,228.84380932701862 L476.5080016430751,217.3199416758753 M476.5080016430751,217.3199416758753 L447.4896214327181,209.30284827330777 M447.4896214327181,209.30284827330777 L416.0979861041377,205.19195089473098 M416.0979861041377,205.19195089473098 L383.9020138958623,205.19195089473098 M383.9020138958623,205.19195089473098 L352.510378567282,209.30284827330777 M352.510378567282,209.30284827330777 L323.49199835692497,217.3199416758753 M323.49199835692497,217.3199416758753 L298.2983716099461,228.84380932701907 M298.2983716099461,228.84380932701907 L278.1915161660092,243.29982144838976 M278.1915161660092,243.29982144838976 L264.1809541336369,259.9663283165719 M264.1809541336369,259.9663283165719 L256.9728207332745,278.0102013664707 M256.9728207332745,278.0102013664707 L256.9337577318675,296.52808844750723 M256.9337577318675,296.52808844750723 L264.07150201679895,314.59143450378815 M264.07150201679895,314.59143450378815 L278.03335324189084,331.29303052445164 M278.03335324189084,331.29303052445164 L298.1228239592618,345.7927981267833" stroke="black"  stroke-width="4"  fill="red"/>
<path d="M503.98497187947845,460.68442088735094 L503.9907485926629,453.1029841453444 M503.9907485926629,453.1029841453444 L524.550769323417,467.93337263735293 M524.550769323417,467.93337263735293 L538.8775209085231,485.031678817809 M538.8775209085231,485.031678817809 L546.2488467171588,503.54324962781766 M546.2488467171588,503.54324962781766 L546.2896895605079,522.5413477145651 M546.2896895605079,522.5413477145651 L538.9919600509725,541.0733465780473 M538.9919600509725,541.0733465780473 L524.7161387170904,558.2084628495625 M524.7161387170904,558.2084628495625 L504.17429483206894,573.0847528022573 M504.17429483206894,573.0847528022573 L478.3951273956994,584.952858978932 M478.3951273956994,584.952858978932 L448.67264894937983,593.2142610169515 M448.67264894937983,593.2142610169515 L416.501033268015,597.4519665085645 M416.501033268015,597.4519665085645 L383.49896673198504,597.4519665085645 M383.49896673198504,597.4519665085645 L351.3273510506203,593.2142610169515 M351.3273510506203,593.2142610169515 L321.6048726043007,584.952858978932 M321.6048726043007,584.952858978932 L295.8257051679309,573.0847528022572 M295.8257051679309,573.0847528022572 L275.28386128290964,558.2084628495625 M275.28386128290964,558.2084628495625 L261.00803994902765,541.0733465780473 M261.00803994902765,541.0733465780473 L253.71031043949228,522.5413477145651 M253.71031043949228,522.5413477145651 L253.75115328284116,503.5432496278176 M253.75115328284116,503.5432496278176 L261.122479091477,485.03167881780894 M261.122479091477,485.03167881780894 L275.4492306765831,467.9333726373528 M275.4492306765831,467.9333726373528 L296.00925140733733,453.1029841453443 M296.00925140733733,453.1029841453443 L321.7702421095408,441.28077946250994 M321.7702421095408,441.28077946250994 L351.44179033219086,433.0561875831407 M351.44179033219086,433.0561875831407 L383.5398096372488,428.8389101882717 M383.5398096372488,428.8389101882717 L416.4601903627513,428.8389101882717 M416.4601903627513,428.8389101882717 L448.5582096678092,433.0561875831407 M448.5582096678092,433.0561875831407 L478.2297578904593,441.28077946250994 M478.2297578904593,441.28077946250994 L503.9907485926629,453.1029841453444 M503.98497187947845,460.68442088735094 L478.225412962754,448.8615543737502 M478.225412962754,448.8615543737502 L448.5555130420437,440.6365019304635 M448.5555130420437,440.6365019304635 L416.4592763212464,436.4189883319623 M416.4592763212464,436.4189883319623 L383.5407236787536,436.4189883319623 M383.5407236787536,436.4189883319623 L351.4444869579564,440.6365019304634 M351.4444869579564,440.6365019304634 L321.7745870372461,448.8615543737502 M321.7745870372461,448.8615543737502 L296.0150281205212,460.68442088735117 M296.0150281205212,460.68442088735117 L275.4561510136496,475.5156392912716 M275.4561510136496,475.5156392912716 L261.1301973973078,492.6149018506804 M261.1301973973078,492.6149018506804 L253.75928347230638,511.1275075506594 M253.75928347230638,511.1275075506594 L253.71844517049325,530.1266671443302 M253.71844517049325,530.1266671443302 L261.01577097996517,548.6597009033395 M261.01577097996517,548.6597009033395 L275.29080000829777,565.7957735638183 M275.29080000829777,565.7957735638183 L295.83150229062664,580.6728934409064 M295.83150229062664,580.6728934409064 L321.6092359203524,592.5416614608243 M321.6092359203524,592.5416614608243 L351.33006040152344,600.8035240727645 M351.33006040152344,600.8035240727645 L383.4998853150394,605.0414657735603 M383.4998853150394,605.0414657735603 L416.50011468496064,605.0414657735603 M416.50011468496064,605.0414657735603 L448.6699395984766,600.8035240727645 M448.6699395984766,600.8035240727645 L478.3907640796477,592.5416614608243 M478.3907640796477,592.5416614608243 L504.16849770937444,580.6728934409057 M504.16849770937444,580.6728934409057 L524.7091999917022,565.7957735638183 M524.7091999917022,565.7957735638183 L538.9842290200348,548.6597009033395 M538.9842290200348,548.6597009033395 L546.2815548295068,530.1266671443302 M546.2815548295068,530.1266671443302 L546.2407165276936,511.1275075506594 M546.2407165276936,511.1275075506594 L538.8698026026923,492.6149018506804 M538.8698026026923,492.6149018506804 L524.5438489863504,475.51563929127167 M524.5438489863504,475.51563929127167 L503.98497187947845,460.68442088735094 M298.2969567587208,579.2517011044952 L278.24177935702204,564.7269208934428 M278.24177935702204,564.7269208934428 L264.3037301561243,547.9965008862846 M264.3037301561243,547.9965008862846 L257.1781154371547,529.901964862798 M257.1781154371547,529.901964862798 L257.2170451311538,511.35208586954866 M257.2170451311538,511.35208586954866 L264.4128087537871,493.27702318153985 M264.4128087537871,493.27702318153985 L278.39940253004295,476.5816929198253 M278.39940253004295,476.5816929198253 L298.4719053305248,462.10066892905866 M298.4719053305248,462.10066892905866 L323.62252196855343,450.55685506765985 M323.62252196855343,450.55685506765985 L352.591386885883,442.5258812405414 M352.591386885883,442.5258812405414 L383.929472353857,438.4078651866855 M383.929472353857,438.4078651866855 L416.07052764614303,438.4078651866855 M416.07052764614303,438.4078651866855 L447.40861311411703,442.5258812405414 M447.40861311411703,442.5258812405414 L476.3774780314467,450.55685506765985 M476.3774780314467,450.55685506765985 L501.5280946694755,462.1006689290589 M501.5280946694755,462.1006689290589 L521.6005974699572,476.58169291982534 M521.6005974699572,476.58169291982534 L535.5871912462129,493.27702318153985 M535.5871912462129,493.27702318153985 L542.7829548688462,511.35208586954866 M542.7829548688462,511.35208586954866 L542.8218845628454,529.901964862798 M542.8218845628454,529.901964862798 L535.6962698438757,547.9965008862846 M535.6962698438757,547.9965008862846 L521.758220642978,564.7269208934428 M521.758220642978,564.7269208934428 L501.70304324127915,579.2517011044952 M501.70304324127915,579.2517011044952 L476.53510130582697,590.8392712228328 M476.53510130582697,590.8392712228328 L447.51769183817305,598.9053348589797 M447.51769183817305,598.9053348589797 L416.10945739639243,603.0428242932571 M416.10945739639243,603.0428242932571 L383.8905426036076,603.0428242932571 M383.8905426036076,603.0428242932571 L352.482308161827,598.9053348589797 M352.482308161827,598.9053348589797 L323.46489869417314,590.8392712228328 M323.46489869417314,590.8392712228328 L298.2969567587208,579.2517011044952 M298.2969567587208,579.2517011044952 L298.29129696013337,571.6636397318422 M298.29129696013337,571.6636397318422 L323.4606387728236,583.250563657922 M323.4606387728236,583.250563657922 L352.47966302778775,591.3161776116199 M352.47966302778775,591.3161776116199 L383.8896457952685,595.4534364224253 M383.8896457952685,595.4534364224253 L416.1103542047315,595.4534364224253 M416.1103542047315,595.4534364224253 L447.52033697221236,591.3161776116199 M447.52033697221236,591.3161776116199 L476.5393612271765,583.250563657922 M476.5393612271765,583.250563657922 L501.7087030398671,571.6636397318418 M501.7087030398671,571.6636397318418 L521.7649950717613,557.1396698193657 M521.7649950717613,557.1396698193657 L535.703817907757,540.4101835847887 M535.703817907757,540.4101835847887 L542.8298268750326,522.3166579839848 M542.8298268750326,522.3166579839848 L542.7908928517495,503.7678153957889 M542.7908928517495,503.7678153957889 L535.5947271797066,485.6937631251656 M535.5947271797066,485.6937631251656 L521.6073543698144,468.9993666264889 M521.6073543698144,468.9993666264889 L501.5337350124106,454.5191529224004 M501.5337350124106,454.5191529224004 L476.3817204238477,442.97598524136504 M476.3817204238477,442.97598524136504 L447.4112461177407,434.9454610871594 M447.4112461177407,434.9454610871594 L416.0714201251858,430.827675651484 M416.0714201251858,430.827675651484 L383.92857987481426,430.827675651484 M383.92857987481426,430.827675651484 L352.58875388225937,434.9454610871594 M352.58875388225937,434.9454610871594 L323.6182795761524,442.97598524136504 M323.6182795761524,442.97598524136504 L298.4662649875885,454.51915292240096 M298.4662649875885,454.51915292240096 L278.3926456301857,468.9993666264889 M278.3926456301857,468.9993666264889 L264.4052728202934,485.6937631251656 M264.4052728202934,485.6937631251656 L257.20910714825055,503.7678153957889 M257.20910714825055,503.7678153957889 L257.17017312496756,522.3166579839848 M257.17017312496756,522.3166579839848 L264.2961820922431,540.4101835847886 M264.2961820922431,540.4101835847886 L278.2350049282389,557.1396698193657 M278.2350049282389,557.1396698193657 L298.29129696013337,571.6636397318422" stroke="black"  stroke-width="4"  fill="red"/>
<path d="M504.3125490232235,460.49559155292263 L504.4966524904384,219.63413985417588 M504.4966524904384,219.63413985417588 L517.0155662198044,227.79625009482282 M517.0155662198044,227.79625009482282 L527.617478029167,236.81144419321808 M527.617478029167,236.81144419321808 L536.1278701211604,246.53231046551704 M536.1278701211604,246.53231046551704 L542.4063115877775,256.79977056850385 M542.4063115877775,256.79977056850385 L546.3488009002195,267.445647516341 M546.3488009002195,267.445647516341 L547.8895534115774,278.2954114181634 M547.8895534115774,278.2954114181634 L547.0021064018798,289.1710135259539 M547.0021064018798,289.1710135259539 L543.6998893408934,299.89381194022957 M543.6998893408934,299.89381194022957 L538.0360333594277,310.2875212239991 M538.0360333594277,310.2875212239991 L530.102576208473,320.1810846964817 M530.102576208473,320.1810846964817 L520.0290332218526,329.41154293670695 M520.0290332218526,329.41154293670695 L507.98031245449795,337.82673985206634 M507.98031245449795,337.82673985206634 L494.1540186565179,345.28783523887023 M494.1540186565179,345.28783523887023 L478.77725187008105,351.6716518104265 M478.77725187008105,351.6716518104265 L462.10287286271085,356.87273825416844 M462.10287286271085,356.87273825416844 L444.4053012564044,360.8051285036914 M444.4053012564044,360.8051285036914 L425.97598765620376,363.40380018170544 M425.97598765620376,363.40380018170544 L407.1185879987778,364.6257787337929 M407.1185879987778,364.6257787337929 L388.1438555577306,364.4508497135174 M388.1438555577306,364.4508497135174 L369.3645287674438,362.8819013779496 M369.3645287674438,362.8819013779496 L351.09007216275734,359.9448958457857 M351.09007216275734,359.9448958457857 L333.62155956910016,355.688396729832 M333.62155956910016,355.688396729832 L317.24662734488766,350.1827788877942 M317.24662734488766,350.1827788877942 L302.2347105039691,343.5190320003028 M302.2347105039691,343.5190320003028 L288.83261020323243,335.8072148733609 M288.83261020323243,335.8072148733609 L277.26038630434965,327.1746233137847 M277.26038630434965,327.1746233137847 L267.7077461251761,317.7636571851761 M267.7077461251761,317.7636571851761 L260.33097949234167,307.7294193162478 M260.33097949234167,307.7294193162478 L255.2504068306527,297.2371472827807 M255.2504068306527,297.2371472827807 L252.54844056128962,286.45947589343155 M252.54844056128962,286.45947589343155 L252.26834922635302,275.57355833317854 M252.26834922635302,275.57355833317854 L254.41356167025876,264.75816679694924 M254.41356167025876,264.75816679694924 L258.9477214527355,254.19072861484187 M258.9477214527355,254.19072861484187 L265.7953591785614,244.04446000828725 M265.7953591785614,244.04446000828725 L274.84317505246463,234.48551109671357 M274.84317505246463,234.48551109671357 L285.9419671015688,225.67027654551336 M285.9419671015688,225.67027654551336 L298.90913956079623,217.74287534420426 M298.90913956079623,217.74287534420426 L313.5317005736898,210.83281075881615 M313.5317005736898,210.83281075881615 L329.5697584328307,205.05288671369496 M329.5697584328307,205.05288671369496 L346.7604881299824,200.49741438761322 M346.7604881299824,200.49741438761322 L364.8223702493812,197.2406903367566 M364.8223702493812,197.2406903367566 L383.45975937901363,195.33580503684672 M383.45975937901363,195.33580503684672 L402.3677372941657,194.81380708789106 M402.3677372941657,194.81380708789106 L421.2369842185404,195.68321176167194 M421.2369842185404,195.68321176167194 L439.75880414533566,197.92983914925549 M439.75880414533566,197.92983914925549 L457.6301353204491,201.5170749592303 M457.6301353204491,201.5170749592303 L474.5584332608812,206.38642881509818 M474.5584332608812,206.38642881509818 L490.2664353704841,212.45847956588662 M490.2664353704841,212.45847956588662 L504.4966524904384,219.63413985417588 M504.3125490232235,460.49559155292263 L490.10741968761164,453.3071041944338 M490.10741968761164,453.3071041944338 L474.4271009532363,447.2241970685443 M474.4271009532363,447.2241970685443 L457.5286289562016,442.34613578210195 M457.5286289562016,442.34613578210195 L439.68877900576666,438.75248444838417 M439.68877900576666,438.75248444838417 L421.1995818477011,436.501838781255 M421.1995818477011,436.501838781255 L402.36356731162596,435.63087903447604 M402.36356731162596,435.63087903447604 L383.48888974135826,436.1538106671898 M383.48888974135826,436.1538106671898 L364.88432617243006,438.062103064001 M364.88432617243006,438.062103064001 L346.8542596964405,441.32465168611395 M346.8542596964405,441.32465168611395 L329.69381662385734,445.88827043575793 M329.69381662385734,445.88827043575793 L313.68402171290444,451.67852900077736 M313.68402171290444,451.67852900077736 L299.087237698855,458.60094651582995 M299.087237698855,458.60094651582995 L286.1429337979676,466.54251624661663 M286.1429337979676,466.54251624661663 L275.06372611681934,475.37350229376636 M275.06372611681934,475.37350229376636 L266.0318875872274,484.9495270308327 M266.0318875872274,484.9495270308327 L259.196355606224,495.1139154245607 M259.196355606224,495.1139154245607 L254.67022816952345,505.7002198397341 M254.67022816952345,505.7002198397341 L252.52883917985628,516.5349142593193 M252.52883917985628,516.5349142593193 L252.80847831097162,527.4402544201891 M252.80847831097162,527.4402544201891 L255.50572003677635,538.2371491948677 M255.50572003677635,538.2371491948677 L260.5773694928829,548.7481297523086 M260.5773694928829,548.7481297523086 L267.94115723993536,558.8002540691116 M267.94115723993536,558.8002540691116 L277.476973113713,568.2279908700073 M277.476973113713,568.2279908700073 L289.028801534159,576.875961952924 M289.028801534159,576.875961952924 L302.4072690051885,584.6015148997892 M302.4072690051885,584.6015148997892 L317.39270370437737,591.2771283524307 M317.39270370437737,591.2771283524307 L333.73874036477554,596.7925486587515 M333.73874036477554,596.7925486587515 L351.1764204254967,601.0566251659307 M351.1764204254967,601.0566251659307 L369.41861664047053,603.9988585852429 M369.41861664047053,603.9988585852429 L388.16478843076186,605.570599473905 M388.16478843076186,605.570599473905 L407.10601958897576,605.745839840384 M407.10601958897576,605.745839840384 L425.9301258937546,604.5216863249129 M425.9301258937546,604.5216863249129 L444.32690471622544,601.918389089579 M444.32690471622544,601.918389089579 L461.9932380060456,597.9789986347334 M461.9932380060456,597.9789986347334 L478.6381911191565,592.7686522911504 M478.6381911191565,592.7686522911504 L493.9878298269384,586.3734681862779 M493.9878298269384,586.3734681862779 L507.7897401058737,578.89908428627 M507.7897401058737,578.89908428627 L519.8172225431493,570.468896083463 M519.8172225431493,570.468896083463 L529.8730203075529,561.2219899616418 M529.8730203075529,561.2219899616418 L537.7925149430336,551.3107920817577 M537.7925149430336,551.3107920817577 L543.446417719534,540.898551431046 M543.446417719534,540.898551431046 L546.7428509356239,530.1566290042456 M546.7428509356239,530.1566290042456 L547.6287745837881,519.2616242401434 M547.6287745837881,519.2616242401434 L546.0907801575331,508.3924976375946 M546.0907801575331,508.3924976375946 L542.1552810220671,497.72761588763206 M542.1552810220671,497.72761588763206 L535.8879433329163,487.4418209301897 M535.8879433329163,487.4418209301897 L527.3925831016779,477.7035908071276 M527.3925831016779,477.7035908071276 L516.8093819835437,468.6722889608484 M516.8093819835437,468.6722889608484 L504.3125490232235,460.49559155292263 M295.8315022906262,580.6728934409059 L283.3799566121919,572.4950215559904 M283.3799566121919,572.4950215559904 L272.8476637964385,563.4669867488813 M272.8476637964385,563.4669867488813 L264.40712006392147,553.7376453744137 M264.40712006392147,553.7376453744137 L258.1962362460704,543.4672839757874 M258.1962362460704,543.4672839757874 L254.3160949516079,532.82495354867 M254.3160949516079,532.82495354867 L252.8293520533472,521.9856626627935 M252.8293520533472,521.9856626627935 L253.75928347230638,511.1275075506594 M253.75928347230638,511.1275075506594 L257.08947139345474,500.42870457715645 M257.08947139345474,500.42870457715645 L262.76416382855786,490.06469705135635 M262.76416382855786,490.06469705135635 L270.68923550411705,480.20528724376686 M270.68923550411705,480.20528724376686 L280.7338267998658,471.0118599552833 M280.7338267998658,471.0118599552833 L292.73249267555934,462.6347675820278 M292.73249267555934,462.6347675820278 L306.4880122013439,455.2109215504548 M306.4880122013439,455.2109215504548 L321.7745870372461,448.8615543737502 M321.7745870372461,448.8615543737502 L338.3415806767431,443.69029818125887 M338.3415806767431,443.69029818125887 L355.91758639190584,439.7815111908156 M355.91758639190584,439.7815111908156 L374.2148570907491,437.19892426027377 M374.2148570907491,437.19892426027377 L392.933972418334,435.9846494166118 M392.933972418334,435.9846494166118 L411.7686744335182,436.15847501214313 M411.7686744335182,436.15847501214313 L430.4108649603317,437.7175609880052 M430.4108649603317,437.7175609880052 L448.5555130420437,440.6365019304635 M448.5555130420437,440.6365019304635 L465.905678898197,444.8677076538462 M465.905678898197,444.8677076538462 L482.17727139910255,450.342180634584 M482.17727139910255,450.342180634584 L497.10368123553593,456.9705981638006 M497.10368123553593,456.9705981638006 L510.4400989500516,464.64476936147923 M510.4400989500516,464.64476936147923 L521.96754275093,473.23934604844146 M521.96754275093,473.23934604844146 L531.4964571404676,482.61383963736046 M531.4964571404676,482.61383963736046 L538.8698026026923,492.6149018506804 M538.8698026026923,492.6149018506804 L543.9657190761422,503.07879178666786 M543.9657190761422,503.07879178666786 L546.699544329172,513.834045188373 M546.699544329172,513.834045188373 L547.025299872035,524.704235944944 M547.025299872035,524.704235944944 L544.9364756306755,535.510910697973 M544.9364756306755,535.510910697973 L540.4662428427405,546.0764731176371 M540.4662428427405,546.0764731176371 L533.6870013746001,556.2271334286962 M533.6870013746001,556.2271334286962 L524.7091999917022,565.7957735638183 M524.7091999917022,565.7957735638183 L513.6796241591323,574.6247190024569 M513.6796241591323,574.6247190024569 L500.7790196590241,582.5683723935422 M500.7790196590241,582.5683723935422 L486.2191265468677,589.4956317791651 M486.2191265468677,589.4956317791651 L470.2392529267592,595.292107947779 M470.2392529267592,595.292107947779 L453.1022751266596,599.8620142808695 M453.1022751266596,599.8620142808695 L435.09032558408137,603.1298139747289 M435.09032558408137,603.1298139747289 L416.50011468496064,605.0414657735603 M416.50011468496064,605.0414657735603 L397.6379738689071,605.5653548278183 M397.6379738689071,605.5653548278183 L378.81475060476066,604.6928124918772 M378.81475060476066,604.6928124918772 L360.34067889472163,602.438271674098 M360.34067889472163,602.438271674098 L342.5201471895588,598.8390193993555 M342.5201471895588,598.8390193993555 L325.6466678393528,593.9545706969101 M325.6466678393528,593.9545706969101 L309.9979913705867,587.8656653431752 M309.9979913705867,587.8656653431752 L295.8315022906262,580.6728934409059 M295.8315022906262,580.6728934409059 L295.6473274961638,339.59739513538983 M295.6473274961638,339.59739513538983 L309.8388467582216,346.77737980389225 M309.8388467582216,346.77737980389225 L325.5151819749373,352.8554624618544 M325.5151819749373,352.8554624618544 L342.4184929555575,357.73123071324085 M342.4184929555575,357.73123071324085 L360.27053690423423,361.32408732901257 M360.27053690423423,361.32408732901257 L378.7772808553295,363.5746223027646 M378.7772808553295,363.5746223027646 L397.6337961667176,364.4456143855175 M397.6337961667176,364.4456143855175 L416.52929811919086,363.9226561245438 M416.52929811919086,363.9226561245438 L435.15238742082454,362.0144008766648 M435.15238742082454,362.0144008766648 L453.1961889424261,358.75240772489974 M453.1961889424261,358.75240772489974 L470.36346592814783,354.19062257093003 M470.36346592814783,354.19062257093003 L486.37158579329866,348.404448875472 M486.37158579329866,348.404448875472 L500.9572066650467,341.48950406539893 M500.9572066650467,341.48950406539893 L513.8805971907981,333.5599751527721 M513.8805971907981,333.5599751527721 L524.9296434619123,324.7467321532357 M524.9296434619123,324.7467321532357 L533.9232812780374,315.19511457958185 M533.9232812780374,315.19511457958185 L540.7144673727796,305.0625174280138 M540.7144673727796,305.0625174280138 L545.192559895521,294.51576216067826 M545.192559895521,294.51576216067826 L547.2850335024017,283.7283297354846 M547.2850335024017,283.7283297354846 L546.9586610113807,272.87750050936745 M546.9586610113807,272.87750050936745 L544.2199667109812,262.14140994383195 M544.2199667109812,262.14140994383195 L539.1150129108712,251.69616947015453 M539.1150129108712,251.69616947015453 L531.7286137121118,241.71293713974373 M531.7286137121118,241.71293713974373 L522.1828463196254,232.35516109483132 M522.1828463196254,232.35516109483132 L510.63502897931005,223.77591512737342 M510.63502897931005,223.77591512737342 L497.275052714826,216.11543609592718 M497.275052714826,216.11543609592718 L482.3222861383347,209.49884736827318 M482.3222861383347,209.49884736827318 L466.0219704664439,204.03414562406795 M466.0219704664439,204.03414562406795 L448.6411846369921,199.81049312783261 M448.6411846369921,199.81049312783261 L430.46451973711095,196.8967633979367 M430.46451973711095,196.8967633979367 L411.7894377721892,195.34046105377092 M411.7894377721892,195.34046105377092 L392.9215059380481,195.1669458186784 M392.9215059380481,195.1669458186784 L374.16936395820073,196.37905264340682 M374.16936395820073,196.37905264340682 L355.83980813660105,198.95702876541844 M355.83980813660105,198.95702876541844 L338.23278535030823,202.85883788028468 M338.23278535030823,202.85883788028468 L321.63654898680943,208.02086368336398 M321.63654898680943,208.02086368336398 L306.3229837293624,214.35889950714335 M306.3229837293624,214.35889950714335 L292.5431679711913,221.7694992744863 M292.5431679711913,221.7694992744863 L280.5232987407792,230.13164794961023 M280.5232987407792,230.13164794961023 L270.4609458655329,239.3086794853123 M270.4609458655329,239.3086794853123 L262.5218478095387,249.15051068078895 M262.5218478095387,249.15051068078895 L256.83709710487364,259.4960453648876 M256.83709710487364,259.4960453648876 L253.50098751513784,270.1757845958688 M253.50098751513784,270.1757845958688 L252.56937205734837,281.01459808840934 M252.56937205734837,281.01459808840934 L254.05870025066633,291.8345870521805 M254.05870025066633,291.8345870521805 L257.9456577418844,302.4579722162923 M257.9456577418844,302.4579722162923 L264.16748046803724,312.7100560896267 M264.16748046803724,312.7100560896267 L272.6229093927616,322.422087801117 M272.6229093927616,322.422087801117 L283.17379170290457,331.43406504199106 M283.17379170290457,331.43406504199106 L295.6473274961638,339.59739513538983" stroke="black"  stroke-width="4"  fill="red"/>
<path d="M465.75838397184117,141.840691836082 L465.7620473915611,134.22007170586 M465.7620473915611,134.22007170586 L479.600911203863,144.33733460297952 M479.600911203863,144.33733460297952 L488.8192080806148,156.06129876289455 M488.8192080806148,156.06129876289455 L492.8792273375297,168.7118941892531 M492.8792273375297,168.7118941892531 L491.5422011941797,181.55452923715893 M491.5422011941797,181.55452923715893 L484.88286171841304,193.8426335240366 M484.88286171841304,193.8426335240366 L473.28574369984506,204.86108774242444 M473.28574369984506,204.86108774242444 L457.4234331645787,213.96801737262967 M457.4234331645787,213.96801737262967 L438.217788426335,220.63243668111727 M438.217788426335,220.63243668111727 L416.7863623726103,224.46550538790564 M416.7863623726103,224.46550538790564 L394.3771500370283,225.2434843019901 M394.3771500370283,225.2434843019901 L372.29547425174735,222.9209468439678 M372.29547425174735,222.9209468439678 L351.82744783717607,217.63348805741379 M351.82744783717607,217.63348805741379 L334.1645984005285,209.68968144530243 M334.1645984005285,209.68968144530243 L320.33413687796707,199.5528686710105 M320.33413687796707,199.5528686710105 L311.1391219941895,187.8138332756859 M311.1391219941895,187.8138332756859 L307.11193079273403,175.15609789641064 M307.11193079273403,175.15609789641064 L308.4838105561847,162.31588984872747 M308.4838105561847,162.31588984872747 L315.1720446843578,150.0392235218576 M315.1720446843578,150.0392235218576 L326.7854789626686,139.03859792561275 M326.7854789626686,139.03859792561275 L342.647789508527,129.9518032631927 M342.647789508527,129.9518032631927 L361.83711799906155,123.30521258811041 M361.83711799906155,123.30521258811041 L383.23964939286793,119.4835818465042 M383.23964939286793,119.4835818465042 L405.61400808778103,118.70802993920177 M405.61400808778103,118.70802993920177 L427.66285580174616,121.02342743103867 M427.66285580174616,121.02342743103867 L448.10760022589676,126.29581497810835 M448.10760022589676,126.29581497810835 L465.7620473915611,134.22007170586 M465.75838397184117,141.840691836082 L448.1049205999087,133.9159840070638 M448.1049205999087,133.9159840070638 L427.66131508198004,128.64329626342447 M427.66131508198004,128.64329626342447 L405.6136954187911,126.32776692417474 M405.6136954187911,126.32776692417474 L383.2405828617716,127.10336299529342 M383.2405828617716,127.10336299529342 L361.8392436035293,130.92521134525896 M361.8392436035293,130.92521134525896 L342.6509842382135,137.57218042810626 M342.6509842382135,137.57218042810626 L326.7895578293036,146.65949230775766 M326.7895578293036,146.65949230775766 L315.176771317288,157.66074387388176 M315.176771317288,157.66074387388176 L308.48891078404205,169.93810854602341 M308.48891078404205,169.93810854602341 L307.1171084578762,182.77904672990377 M307.1171084578762,182.77904672990377 L311.14407610608856,195.4375016036331 M311.14407610608856,195.4375016036331 L320.3385791255435,207.17720403659737 M320.3385791255435,207.17720403659737 L334.16826999729443,217.31459262414808 M334.16826999729443,217.31459262414808 L351.8301347035806,225.25885035935315 M351.8301347035806,225.25885035935315 L372.29701961660675,230.54660935930337 M372.29701961660675,230.54660935930337 L394.3774636916527,232.8692786727097 M394.3774636916527,232.8692786727097 L416.7854260040849,232.09125559209917 M416.7854260040849,232.09125559209917 L438.2156567012582,228.25796926418187 M438.2156567012582,228.25796926418187 L457.4202304954556,221.59317152802407 M457.4202304954556,221.59317152802407 L473.281656893776,212.48572465810645 M473.281656893776,212.48572465810645 L484.8781289648788,201.46664444993252 M484.8781289648788,201.46664444993252 L491.53709806670406,189.17784180501238 M491.53709806670406,189.17784180501238 L492.8740506580208,176.33447661819898 M492.8740506580208,176.33447661819898 L488.81425861380427,163.68316170535886 M488.81425861380427,163.68316170535886 L479.59647619669903,151.9585305246319 M479.59647619669903,151.9585305246319 L465.75838397184117,141.840691836082 M336.63828498773375,215.89790818864722 L323.32705629805247,206.1410245205372 M323.32705629805247,206.1410245205372 L314.4769221119718,194.8418350267171 M314.4769221119718,194.8418350267171 L310.60037747580355,182.65819961841947 M310.60037747580355,182.65819961841947 L311.92010389346035,170.29875199892527 M311.92010389346035,170.29875199892527 L318.35664963732205,158.48158217503493 M318.35664963732205,158.48158217503493 L329.53366564887153,147.89255698905447 M329.53366564887153,147.89255698905447 L344.8002883175522,139.14565686264143 M344.8002883175522,139.14565686264143 L363.26928080382976,132.7476263865068 M363.26928080382976,132.7476263865068 L383.8685906547937,129.068890878474 M383.8685906547937,129.068890878474 L405.4033409097576,128.3223385435183 M405.4033409097576,128.3223385435183 L426.62476897489455,130.55116155706253 M426.62476897489455,130.55116155706253 L446.3021557529478,135.62639739873987 M446.3021557529478,135.62639739873987 L463.29376679241415,143.2542803410409 M463.29376679241415,143.2542803410409 L476.6127785490826,152.99305286042423 M476.6127785490826,152.99305286042423 L485.48447890727925,164.27828025418404 M485.48447890727925,164.27828025418404 L489.39143227435903,176.45530115685364 M489.39143227435903,176.45530115685364 L488.1039908718619,188.8169971675835 M488.1039908718619,188.8169971675835 L481.69421033090555,200.6447632015919 M481.69421033090555,200.6447632015919 L470.53230811477715,211.25030495170705 M470.53230811477715,211.25030495170705 L455.2656854551847,220.01585825739755 M455.2656854551847,220.01585825739755 L436.7815791838115,226.4304053127275 M436.7815791838115,226.4304053127275 L416.15550412349677,230.11973703598665 M416.15550412349677,230.11973703598665 L394.5884688357249,230.86853775975527 M394.5884688357249,230.86853775975527 L373.3366320260711,228.63310023754576 M373.3366320260711,228.63310023754576 L353.63767907809273,223.5439022838629 M353.63767907809273,223.5439022838629 L336.63828498773375,215.89790818864722 M336.63828498773375,215.89790818864722 L336.6347512236595,208.27307746864648 M336.6347512236595,208.27307746864648 L353.6350931001509,215.9186373582723 M353.6350931001509,215.9186373582723 L373.3351446962756,221.00754635669313 M373.3351446962756,221.00754635669313 L394.58816696099086,223.24285696836793 M394.58816696099086,223.24285696836793 L416.1564053258479,222.49409875469001 M416.1564053258479,222.49409875469001 L436.7836308586058,218.80497649159088 M436.7836308586058,218.80497649159088 L455.26876788069245,212.39079367266126 M455.26876788069245,212.39079367266126 L470.5362415221195,203.62573820980134 M470.5362415221195,203.62573820980134 L481.6987654957648,193.02079897447112 M481.6987654957648,193.02079897447112 L488.1089025799011,181.19370510985985 M488.1089025799011,181.19370510985985 L489.39641484611474,168.83271185782726 M489.39641484611474,168.83271185782726 L485.4892428530458,156.65638346112934 M485.4892428530458,156.65638346112934 L476.6170473739378,145.3717980751139 M476.6170473739378,145.3717980751139 L463.29729298122214,135.63357975543073 M463.29729298122214,135.63357975543073 L446.3047350233232,128.00613099849858 M446.3047350233232,128.00613099849858 L426.62625200144646,122.93118409649492 M426.62625200144646,122.93118409649492 L405.4036418713938,120.7024879861005 M405.4036418713938,120.7024879861005 L383.8676921386703,121.44899781347601 M383.8676921386703,121.44899781347601 L363.26723479920594,125.12752387317886 M363.26723479920594,125.12752387317886 L344.7972132471877,131.525190131354 M344.7972132471877,131.525190131354 L329.52973959667037,140.27159243576284 M329.52973959667037,140.27159243576284 L318.35210014262896,150.8600151253998 M318.35210014262896,150.8600151253998 L311.9151948716461,162.67651279172446 M311.9151948716461,162.67651279172446 L310.59539399095115,175.0352576550319 M310.59539399095115,175.0352576550319 L314.47215386296574,187.21820054997227 M314.47215386296574,187.21820054997227 L323.3227807656344,198.51674802045832 M323.3227807656344,198.51674802045832 L336.6347512236595,208.27307746864648" stroke="black"  stroke-width="4"  fill="red"/>
<path d="M465.5429622808729,589.9593897212358 L465.54660173682726,582.3886188489164 M465.54660173682726,582.3886188489164 L479.34008862956455,592.5395281923415 M479.34008862956455,592.5395281923415 L488.52813031979207,604.3024696796427 M488.52813031979207,604.3024696796427 L492.57478739878474,616.9951081181696 M492.57478739878474,616.9951081181696 L491.2420870256818,629.8804084971493 M491.2420870256818,629.8804084971493 L484.6045293491658,642.2093208706513 M484.6045293491658,642.2093208706513 L473.04539950886334,653.2643542648557 M473.04539950886334,653.2643542648557 L457.23508495997106,662.4015082680266 M457.23508495997106,662.4015082680266 L438.09242222453537,669.0880405608056 M438.09242222453537,669.0880405608056 L416.7312947912564,672.9338256883917 M416.7312947912564,672.9338256883917 L394.3955959805204,673.7143854169565 M394.3955959805204,673.7143854169565 L372.3863567505359,671.3841431564276 M372.3863567505359,671.3841431564276 L351.9854617797934,666.079141761152 M351.9854617797934,666.079141761152 L334.38052417152016,658.108974264507 M334.38052417152016,658.108974264507 L320.5953845739908,647.938514386638 M320.5953845739908,647.938514386638 L311.4304724919695,636.1605011572035 M311.4304724919695,636.1605011572035 L307.41642860306166,623.4607225256934 M307.41642860306166,623.4607225256934 L308.7837544732275,610.5778492285399 M308.7837544732275,610.5778492285399 L315.45001768156664,598.2603751996189 M315.45001768156664,598.2603751996189 L327.0253569887685,587.2231710269762 M327.0253569887685,587.2231710269762 L342.83567154811453,578.1061526685137 M342.83567154811453,578.1061526685137 L361.9621248285276,571.4374496084936 M361.9621248285276,571.4374496084936 L383.2945467225695,567.6031028305885 M383.2945467225695,567.6031028305885 L405.59562001594276,566.8249701903906 M405.59562001594276,566.8249701903906 L427.57224604019297,569.1480722447197 M427.57224604019297,569.1480722447197 L447.9500114052493,574.4380018938663 M447.9500114052493,574.4380018938663 L465.54660173682726,582.3886188489164 M465.5429622808729,589.9593897212358 L447.9473493056301,582.0083304249733 M447.9473493056301,582.0083304249733 L427.57071539688104,576.7181064077382 M427.57071539688104,576.7181064077382 L405.5953093917683,574.3948750656048 M405.5953093917683,574.3948750656048 L383.29547408663575,575.1730510122675 M383.29547408663575,575.1730510122675 L361.96423653087265,579.0076111738238 M361.96423653087265,579.0076111738238 L342.83884538121987,585.6766852939818 M342.83884538121987,585.6766852939818 L327.0294091721571,594.794210824464 M327.0294091721571,594.794210824464 L315.4547133886723,605.8320288060772 M315.4547133886723,605.8320288060772 L308.7888213248471,618.1501876087209 M308.7888213248471,618.1501876087209 L307.4215723788155,631.0337768475323 M307.4215723788155,631.0337768475323 L311.43539417167125,643.7342609806676 M311.43539417167125,643.7342609806676 L320.5997977352835,655.5129282705075 M320.5997977352835,655.5129282705075 L334.3841717243739,665.6839527556167 M334.3841717243739,665.6839527556167 L351.9881310488628,673.6545625936529 M351.9881310488628,673.6545625936529 L372.3878919934125,678.9598583571551 M372.3878919934125,678.9598583571551 L394.3959075806688,681.2902299055534 M394.3959075806688,681.2902299055534 L416.73036455598884,680.5096268705016 M416.73036455598884,680.5096268705016 L438.0903044615718,676.6636283591599 M438.0903044615718,676.6636283591599 L457.23190326524684,669.9767250060796 M457.23190326524684,669.9767250060796 L473.04133946385815,660.8390638307039 M473.04133946385815,660.8390638307039 L484.5998275814467,649.7834166273645 M484.5998275814467,649.7834166273645 L491.2370173028643,637.4538194800343 M491.2370173028643,637.4538194800343 L492.5696445990036,624.567803159374 M492.5696445990036,624.567803159374 L488.52321323965043,611.8744592192882 M488.52321323965043,611.8744592192882 L479.3356826377179,600.1108636717207 M479.3356826377179,600.1108636717207 L465.5429622808729,589.9593897212358 M336.84608172269475,664.2625683553651 L323.57847152692887,654.4733101441154 M323.57847152692887,654.4733101441154 L314.757310836674,643.1366169896663 M314.757310836674,643.1366169896663 L310.89342295199106,630.9125284181762 M310.89342295199106,630.9125284181762 L312.2087708711256,618.5120291540761 M312.2087708711256,618.5120291540761 L318.6241753678611,606.655594972197 M318.6241753678611,606.655594972197 L329.7645309650653,596.0313746022764 M329.7645309650653,596.0313746022764 L344.9811130650067,587.2553938243179 M344.9811130650067,587.2553938243179 L363.38959297301193,580.8360872318742 M363.38959297301193,580.8360872318742 L383.92142652924576,577.1451165953231 M383.92142652924576,577.1451165953231 L405.3856433177021,576.3960811369968 M405.3856433177021,576.3960811369968 L426.53756185980285,578.6323173250101 M426.53756185980285,578.6323173250101 L446.1504857292505,583.7244318489352 M446.1504857292505,583.7244318489352 L463.0864147658865,591.3776780902904 M463.0864147658865,591.3776780902904 L476.3617570898646,601.1488245639634 M476.3617570898646,601.1488245639634 L485.2043428056518,612.4715551643792 M485.2043428056518,612.4715551643792 L489.0984404018149,624.6890290151665 M489.0984404018149,624.6890290151665 L487.81516619849117,637.0917767436106 M487.81516619849117,637.0917767436106 L481.4263517314178,648.9588074801459 M481.4263517314178,648.9588074801459 L470.3010110126274,659.5995449512197 M470.3010110126274,659.5995449512197 L455.0844289216557,668.3941795149125 M455.0844289216557,668.3941795149125 L436.66093414542746,674.8300032235143 M436.66093414542746,674.8300032235143 L416.10251055317,678.5315704197666 M416.10251055317,678.5315704197666 L394.60622003148484,679.2828543399978 M394.60622003148484,679.2828543399978 L373.42409176447603,677.0400034282893 M373.42409176447603,677.0400034282893 L353.7897428716584,671.9339263384529 M353.7897428716584,671.9339263384529 L336.84608172269475,664.2625683553651 M336.84608172269475,664.2625683553651 L336.84257109943644,656.6876687570763 M336.84257109943644,656.6876687570763 L353.78717382986736,664.3586009865712 M353.78717382986736,664.3586009865712 L373.4226141762659,669.4643947468223 M373.4226141762659,669.4643947468223 L394.60592013400907,671.7071212190831 M394.60592013400907,671.7071212190831 L416.1034058527744,670.9558789812068 M416.1034058527744,670.9558789812068 L436.66297238277275,667.2545171668706 M436.66297238277275,667.2545171668706 L455.0874911607122,660.8190506039315 M455.0874911607122,660.8190506039315 L470.30491866385273,652.0249041934967 M470.30491866385273,652.0249041934967 L481.4308770735131,641.3847575136888 M481.4308770735131,641.3847575136888 L487.82004575505886,629.5183858719727 M487.82004575505886,629.5183858719727 L489.10339036415866,617.1163272374428 M489.10339036415866,617.1163272374428 L485.20907557842736,604.8995324319947 M485.20907557842736,604.8995324319947 L476.3659979861986,593.5774313644993 M476.3659979861986,593.5774313644993 L463.089917888127,583.8068283251787 M463.089917888127,583.8068283251787 L446.1530481292188,576.1540078372504 M446.1530481292188,576.1540078372504 L426.5390351869474,571.0621766427828 M426.5390351869474,571.0621766427828 L405.3859423110297,568.8260648941566 M405.3859423110297,568.8260648941566 L383.92053388954037,569.5750586701487 M383.92053388954037,569.5750586701487 L363.3875603502614,573.2658239248805 M363.3875603502614,573.2658239248805 L344.97805810900263,579.684773371813 M344.97805810900263,579.684773371813 L329.7606305968904,588.4602659966852 M329.7606305968904,588.4602659966852 L318.6196556403564,599.0838955754923 M318.6196556403564,599.0838955754923 L312.20389397445393,610.9396706626501 M312.20389397445393,610.9396706626501 L310.8884720855002,623.3394808328567 M310.8884720855002,623.3394808328567 L314.7525738028367,635.5628903589466 M314.7525738028367,635.5628903589466 L323.57422398877566,646.8989539803463 M323.57422398877566,646.8989539803463 L336.84257109943644,656.6876687570763" stroke="black"  stroke-width="4"  fill="red"/>
<path d="M465.87049546970957,589.7702883464924 L466.090674785541,134.03160770930452 M466.090674785541,134.03160770930452 L479.9987520922678,144.199410507312 M479.9987520922678,144.199410507312 L489.2632040362856,155.98195300873198 M489.2632040362856,155.98195300873198 L493.3436028626654,168.69578627885912 M493.3436028626654,168.69578627885912 L491.99997752572466,181.60263917139784 M491.99997752572466,181.60263917139784 L485.30741539593146,193.95221393143228 M485.30741539593146,193.95221393143228 L473.6523538727391,205.02580645962183 M473.6523538727391,205.02580645962183 L457.7107330096624,214.17832073670294 M457.7107330096624,214.17832073670294 L438.4090169567228,220.87610645028332 M438.4090169567228,220.87610645028332 L416.87035899701596,224.72836851481074 M416.87035899701596,224.72836851481074 L394.34901538945536,225.510244381807 M394.34901538945536,225.510244381807 L372.15684373807954,223.17607795863444 M372.15684373807954,223.17607795863444 L351.58642500772135,217.86214095688683 M351.58642500772135,217.86214095688683 L333.8352356275713,209.8785671731668 M333.8352356275713,209.8785671731668 L319.9356448515058,199.6910185056195 M319.9356448515058,199.6910185056195 L310.69470829076334,187.8932536844 M310.69470829076334,187.8932536844 L306.6474666306287,175.1722088814838 M306.6474666306287,175.1722088814838 L308.0262949914266,162.2678073198382 M308.0262949914266,162.2678073198382 L314.7480414465215,149.92978518665606 M314.7480414465215,149.92978518665606 L326.4195828037864,138.8742000154674 M326.4195828037864,138.8742000154674 L342.36120367766847,129.7420225587532 M342.36120367766847,129.7420225587532 L361.6464399088118,123.06224420965509 M361.6464399088118,123.06224420965509 L383.15591353555374,119.22153477375878 M383.15591353555374,119.22153477375878 L405.6420540982744,118.44211024730447 M405.6420540982744,118.44211024730447 L427.8010685672292,120.76906513106303 M427.8010685672292,120.76906513106303 L448.34797191691695,126.06777979512236 M448.34797191691695,126.06777979512236 L466.090674785541,134.03160770930452 M465.87049546970957,589.7702883464924 L448.1869208371046,581.7795238565259 M448.1869208371046,581.7795238565259 L427.7084681455055,576.4628835314622 M427.7084681455055,576.4628835314622 L405.62326206244865,574.12805563464 M405.62326206244865,574.12805563464 L383.2120169166903,574.9101173235902 M383.2120169166903,574.9101173235902 L361.77419312188636,578.7638208226977 M361.77419312188636,578.7638208226977 L342.5532136526152,585.4661950303479 M342.5532136526152,585.4661950303479 L326.66473148281136,594.6292570052051 M326.66473148281136,594.6292570052051 L315.03212258150836,605.7222205260124 M315.03212258150836,605.7222205260124 L308.3328303789937,618.1019426003377 M308.3328303789937,618.1019426003377 L306.95865657784077,631.0499422540231 M306.95865657784077,631.0499422540231 L310.9924625416707,643.8139495645953 M310.9924625416707,643.8139495645953 L320.2026350985149,655.6515444286129 M320.2026350985149,655.6515444286129 L334.0559080509187,665.8734758758512 M334.0559080509187,665.8734758758512 L351.74791271264576,673.8839868993591 M351.74791271264576,673.8839868993591 L372.24972427695263,679.2158500739736 M372.24972427695263,679.2158500739736 L394.36786686283864,681.5578897526955 M394.36786686283864,681.5578897526955 L416.81408075747385,680.7733766407782 M416.81408075747385,680.7733766407782 L438.28089464720733,676.9081201245812 M438.28089464720733,676.9081201245812 L457.5182442559118,670.187737946923 M457.5182442559118,670.187737946923 L473.4067264150535,661.0043384678033 M473.4067264150535,661.0043384678033 L485.02296516480993,649.8933669844016 M485.02296516480993,649.8933669844016 L491.6932672799566,637.5020918946886 M491.6932672799566,637.5020918946886 L493.032472352937,624.5516408276658 M493.032472352937,624.5516408276658 L488.9657299022392,611.7948452924225 M488.9657299022392,611.7948452924225 L479.73219847011694,599.9724732601485 M479.73219847011694,599.9724732601485 L465.87049546970957,589.7702883464924 M334.3841717243736,665.6839527556165 L320.5997977352835,655.5129282705075 M320.5997977352835,655.5129282705075 L311.43539417167125,643.7342609806676 M311.43539417167125,643.7342609806676 L307.4215723788155,631.0337768475323 M307.4215723788155,631.0337768475323 L308.7888213248471,618.1501876087209 M308.7888213248471,618.1501876087209 L315.4547133886723,605.8320288060772 M315.4547133886723,605.8320288060772 L327.0294091721571,594.794210824464 M327.0294091721571,594.794210824464 L342.83884538121987,585.6766852939818 M342.83884538121987,585.6766852939818 L361.96423653087265,579.0076111738238 M361.96423653087265,579.0076111738238 L383.29547408663575,575.1730510122675 M383.29547408663575,575.1730510122675 L405.5953093917683,574.3948750656048 M405.5953093917683,574.3948750656048 L427.57071539688104,576.7181064077382 M427.57071539688104,576.7181064077382 L447.9473493056301,582.0083304249733 M447.9473493056301,582.0083304249733 L465.5429622808731,589.9593897212359 M465.5429622808731,589.9593897212359 L479.3356826377179,600.1108636717207 M479.3356826377179,600.1108636717207 L488.52321323965043,611.8744592192882 M488.52321323965043,611.8744592192882 L492.5696445990036,624.567803159374 M492.5696445990036,624.567803159374 L491.2370173028643,637.4538194800343 M491.2370173028643,637.4538194800343 L484.5998275814467,649.7834166273645 M484.5998275814467,649.7834166273645 L473.04133946385815,660.8390638307039 M473.04133946385815,660.8390638307039 L457.23190326524684,669.9767250060796 M457.23190326524684,669.9767250060796 L438.0903044615718,676.6636283591599 M438.0903044615718,676.6636283591599 L416.73036455598884,680.5096268705016 M416.73036455598884,680.5096268705016 L394.3959075806688,681.2902299055534 M394.3959075806688,681.2902299055534 L372.3878919934125,678.9598583571551 M372.3878919934125,678.9598583571551 L351.9881310488628,673.6545625936529 M351.9881310488628,673.6545625936529 L334.3841717243736,665.6839527556165 M334.3841717243736,665.6839527556165 L334.1645984005287,209.68968144530243 M334.1645984005287,209.68968144530243 L351.82744783717607,217.63348805741379 M351.82744783717607,217.63348805741379 L372.29547425174735,222.9209468439678 M372.29547425174735,222.9209468439678 L394.3771500370283,225.2434843019901 M394.3771500370283,225.2434843019901 L416.7863623726103,224.46550538790564 M416.7863623726103,224.46550538790564 L438.217788426335,220.63243668111727 M438.217788426335,220.63243668111727 L457.4234331645787,213.96801737262967 M457.4234331645787,213.96801737262967 L473.28574369984506,204.86108774242444 M473.28574369984506,204.86108774242444 L484.88286171841304,193.8426335240366 M484.88286171841304,193.8426335240366 L491.5422011941797,181.55452923715893 M491.5422011941797,181.55452923715893 L492.8792273375297,168.7118941892531 M492.8792273375297,168.7118941892531 L488.8192080806148,156.06129876289455 M488.8192080806148,156.06129876289455 L479.600911203863,144.33733460297952 M479.600911203863,144.33733460297952 L465.76204739156066,134.22007170585982 M465.76204739156066,134.22007170585982 L448.10760022589676,126.29581497810835 M448.10760022589676,126.29581497810835 L427.66285580174616,121.02342743103867 M427.66285580174616,121.02342743103867 L405.61400808778103,118.70802993920177 M405.61400808778103,118.70802993920177 L383.23964939286793,119.4835818465042 M383.23964939286793,119.4835818465042 L361.83711799906155,123.30521258811041 M361.83711799906155,123.30521258811041 L342.647789508527,129.9518032631927 M342.647789508527,129.9518032631927 L326.7854789626686,139.03859792561275 M326.7854789626686,139.03859792561275 L315.1720446843578,150.0392235218576 M315.1720446843578,150.0392235218576 L308.4838105561847,162.31588984872747 M308.4838105561847,162.31588984872747 L307.11193079273403,175.15609789641064 M307.11193079273403,175.15609789641064 L311.1391219941895,187.8138332756859 M311.1391219941895,187.8138332756859 L320.33413687796707,199.5528686710105 M320.33413687796707,199.5528686710105 L334.1645984005287,209.68968144530243" stroke="black"  stroke-width="4"  fill="red"/>
<path d="M596.8256031589352,226.28212375339973 L596.8365433847791,218.68356392317548 M596.8365433847791,218.68356392317548 L625.9276714450065,238.27233635590125 M625.9276714450065,238.27233635590125 L649.1914351457998,260.2937751939376 M649.1914351457998,260.2937751939376 L666.0215635080834,284.18167534105044 M666.0215635080834,284.18167534105044 L675.9763285727416,309.32061083669237 M675.9763285727416,309.32061083669237 L678.7905910521091,335.06150749801327 M678.7905910521091,335.06150749801327 L674.3833711072066,360.73828038035344 M674.3833711072066,360.73828038035344 L662.8608441915757,385.68500535491546 M662.8608441915757,385.68500535491546 L644.5143568143344,409.25324297294725 M644.5143568143344,409.25324297294725 L619.8136371708384,430.8290992117343 M619.8136371708384,430.8290992117343 L589.3951929193358,449.84945390283207 M589.3951929193358,449.84945390283207 L554.0461658687209,465.8170214674951 M554.0461658687209,465.8170214674951 L514.684025136634,478.313690713901 M514.684025136634,478.313690713901 L472.33255481456354,487.0118230586908 M472.33255481456354,487.0118230586908 L428.09496852497904,491.6831681409664 M428.09496852497904,491.6831681409664 L383.12464758664606,492.20506004421605 M383.12464758664606,492.20506004421605 L338.59444905258266,488.5638065657891 M338.59444905258266,488.5638065657891 L295.66555529490137,480.8550034238186 M295.66555529490137,480.8550034238186 L255.45651144822298,469.28100778468485 M255.45651144822298,469.28100778468485 L219.0136016219404,454.1453273698938 M219.0136016219404,454.1453273698938 L187.28325482218253,435.84442284990956 M187.28325482218253,435.84442284990956 L161.08724612134486,414.8569731881679 M161.08724612134486,414.8569731881679 L141.10141841833445,391.73099254925575 M141.10141841833445,391.73099254925575 L127.83844340915982,367.0691649226703 M127.83844340915982,367.0691649226703 L121.63514713640393,341.5128560665077 M121.63514713640393,341.5128560665077 L122.64432222274058,315.72525530543214 M122.64432222274058,315.72525530543214 L130.83172691180891,290.3740262865633 M130.83172691180891,290.3740262865633 L145.977704061584,266.1140802845989 M145.977704061584,266.1140802845989 L167.68371634248456,243.5707725006817 M167.68371634248456,243.5707725006817 L195.3832678084946,223.32399229765255 M195.3832678084946,223.32399229765255 L228.35704585696067,205.89359637241128 M228.35704585696067,205.89359637241128 L265.75173906987766,191.72637958272594 M265.75173906987766,191.72637958272594 L306.6020255637352,181.18498241082887 M306.6020255637352,181.18498241082887 L349.8553004642411,174.5389385364411 M349.8553004642411,174.5389385364411 L394.39833291578606,171.95804966184738 M394.39833291578606,171.95804966184738 L439.08542962935434,173.50823912910823 M439.08542962935434,173.50823912910823 L482.7672696677429,179.14990645687405 M482.7672696677429,179.14990645687405 L524.3198190820794,188.73893509738826 M524.3198190820794,188.73893509738826 L562.6727572880006,202.03019428741848 M562.6727572880006,202.03019428741848 L596.8365433847791,218.68356392317548 M596.8256031589352,226.28212375339973 L562.6637181167363,209.62781162555356 M562.6637181167363,209.62781162555356 L524.3129124086317,196.3357998944292 M524.3129124086317,196.3357998944292 L482.7626721260152,186.7462281503104 M482.7626721260152,186.7462281503104 L439.08325869969536,181.10424121916918 M439.08325869969536,181.10424121916918 L394.3986440431518,179.55396392372504 M394.3986440431518,179.55396392372504 L349.85808570349286,182.13499902005657 M349.85808570349286,182.13499902005657 L306.6072137739176,188.7814193795532 M306.6072137739176,188.7814193795532 L265.7591976538062,199.32341355188265 M265.7591976538062,199.32341355188265 L228.36658401555965,213.491432399086 M228.36658401555965,213.491432399086 L195.39464123822802,230.9228146703499 M195.39464123822802,230.9228146703499 L167.69663328482403,251.1707399661966 M167.69663328482403,251.1707399661966 L145.99183257096567,273.71532193566713 M145.99183257096567,273.71532193566713 L130.8467031851742,297.9766382188184 M130.8467031851742,297.9766382188184 L122.65975980428885,323.3292981261604 M122.65975980428885,323.3292981261604 L121.65064677772398,349.11835332361295 M121.65064677772398,349.11835332361295 L127.85360335089462,374.676102494515 M127.85360335089462,374.676102494515 L141.1158448241576,399.33931900806624 M141.1158448241576,399.33931900806624 L161.1005634051697,422.46660113245287 M161.1005634051697,422.46660113245287 L187.29511557165515,443.4552311676348 M187.29511557165515,443.4552311676348 L219.0236958548121,461.75716437478104 M219.0236958548121,461.75716437478104 L255.46457492975142,476.89369514539743 M255.46457492975142,476.89369514539743 L295.67137667139923,488.46834078342124 M295.67137667139923,488.46834078342124 L338.5978755849299,496.1775767320051 M338.5978755849299,496.1775767320051 L383.1255893099205,499.81903461274345 M383.1255893099205,499.81903461274345 L428.0934007068911,499.29711341434916 M428.0934007068911,499.29711341434916 L472.3285186292409,494.6255060974663 M472.3285186292409,494.6255060974663 L514.6776265408168,485.9268853714929 M514.6776265408168,485.9268853714929 L554.0375727100339,473.4295142470089 M554.0375727100339,473.4295142470089 L589.3846303666219,457.46104948760467 M589.3846303666219,457.46104948760467 L619.8013816143385,438.4396255240003 M619.8013816143385,438.4396255240003 L644.500728414557,416.86255563069625 M644.500728414557,416.86255563069625 L662.8461983034941,393.2929914125421 M662.8461983034941,393.2929914125421 L674.3680888310994,368.34486125303056 M674.3680888310994,368.34486125303056 L678.775069180822,342.66664099748664 M678.775069180822,342.66664099748664 L675.9609692156971,316.92429226240336 M675.9609692156971,316.92429226240336 L666.0067636661884,291.7839376008467 M666.0067636661884,291.7839376008467 L649.1775765147896,267.8946879514657 M649.1775765147896,267.8946879514657 L625.9151106959082,245.87200422388244 M625.9151106959082,245.87200422388244 L596.8256031589352,226.28212375339973 M204.98845390612692,451.55220472781946 L176.29582109339395,432.0895419945201 M176.29582109339395,432.0895419945201 L153.42049219398464,410.2365970481219 M153.42049219398464,410.2365970481219 L136.9512039462266,386.56339123620785 M136.9512039462266,386.56339123620785 L127.30873151739854,361.68619923973085 M127.30873151739854,361.68619923973085 L124.73565050801818,336.25126092818255 M124.73565050801818,336.25126092818255 L129.290682102367,310.9178538076718 M129.290682102367,310.9178538076718 L140.84812350988784,286.34117968859385 M140.84812350988784,286.34117968859385 L159.10177252525656,263.1554595727157 M159.10177252525656,263.1554595727157 L183.57364839308073,241.95777116342194 M183.57364839308073,241.95777116342194 L213.62687781024545,223.29293277219645 M213.62687781024545,223.29293277219645 L248.48246361580613,207.6398083552287 M248.48246361580613,207.6398083552287 L287.239608611332,195.39941201196072 M287.239608611332,195.39941201196072 L328.8987420246,186.8849182530792 M328.8987420246,186.8849182530792 L372.38704644778966,182.3139787782714 M372.38704644778966,182.3139787782714 L416.58559025105876,181.80338112247858 M416.58559025105876,181.80338112247858 L460.357527456762,185.3661589688161 M460.357527456762,185.3661589688161 L502.57681150778626,192.9112998844352 M502.57681150778626,192.9112998844352 L542.1564683274729,204.24596909525093 M542.1564683274729,204.24596909525093 L578.0761716718896,219.08022432196333 M578.0761716718896,219.08022432196333 L609.4081473303331,237.03417791348676 M609.4081473303331,237.03417791348676 L635.3409337580246,257.64737599323996 M635.3409337580246,257.64737599323996 L655.2004150506857,280.3902706430896 M655.2004150506857,280.3902706430896 L668.467497896106,304.6774868971595 M668.467497896106,304.6774868971595 L674.7920791557852,329.88258863644944 M674.7920791557852,329.88258863644944 L674.0027503653893,355.3540853119508 M674.0027503653893,355.3540853119508 L666.1120096405557,380.432104541591 M666.1120096405557,380.432104541591 L651.3168013551631,404.46554141920296 M651.3168013551631,404.46554141920296 L629.994132611927,426.8290707558741 M629.994132611927,426.8290707558741 L602.6919536316472,446.9396228844789 M602.6919536316472,446.9396228844789 L570.1154736178208,464.2719245463287 M570.1154736178208,464.2719245463287 L533.1090025716369,478.3725004115297 M533.1090025716369,478.3725004115297 L492.63409671727885,488.8719411476349 M492.63409671727885,488.8719411476349 L449.74430882365766,495.49488569449477 M449.74430882365766,495.49488569449477 L405.5573490087062,498.0674933751626 M405.5573490087062,498.0674933751626 L361.2254676297597,496.52223593779644 M361.2254676297597,496.52223593779644 L317.9047446306953,490.89966738018524 M317.9047446306953,490.89966738018524 L276.7243521800432,481.3473964731693 M276.7243521800432,481.3473964731693 L238.75657782705716,468.1159929572357 M238.75657782705716,468.1159929572357 L204.98845390612692,451.55220472781946 M204.98845390612692,451.55220472781946 L204.9775784687389,443.94094123996126 M204.9775784687389,443.94094123996126 L238.74758338492296,460.5037986736494 M238.74758338492296,460.5037986736494 L276.71747430898995,473.73445897935073 M276.71747430898995,473.73445897935073 L317.9001636781227,483.28619351219265 M317.9001636781227,483.28619351219265 L361.2233038143554,488.908446424238 M361.2233038143554,488.908446424238 L405.5576591439896,490.45361712143114 M405.5576591439896,490.45361712143114 L449.74708476625034,487.8811538515134 M449.74708476625034,487.8811538515134 L492.63926558787796,481.25858112695965 M492.63926558787796,481.25858112695965 L533.1164287464003,470.7597299931083 M533.1164287464003,470.7597299931083 L570.1249624220874,456.6599462385807 M570.1249624220874,456.6599462385807 L602.7032566242486,439.3286186790201 M602.7032566242486,439.3286186790201 L630.0069542989418,419.21919741243084 M630.0069542989418,419.21919741243084 L651.3308071246728,396.85692640704093 M651.3308071246728,396.85692640704093 L666.1268346928982,372.824842736362 M666.1268346928982,372.824842736362 L674.0180093717544,347.7482365394265 M674.0180093717544,347.7482365394265 L674.8073763765946,322.2781761235798 M674.8073763765946,322.2781761235798 L668.4824374861014,297.07449667061024 M668.4824374861014,297.07449667061024 L655.2146112731871,272.7886518940551 M655.2146112731871,272.7886518940551 L635.3540208510901,250.04704239271518 M635.3540208510901,250.04704239271518 L609.4197887834137,229.43500985039822 M609.4197887834137,229.43500985039822 L578.0860686893475,211.48207200200443 M578.0860686893475,211.48207200200443 L542.1643672896637,196.64865642081438 M542.1643672896637,196.64865642081438 L502.5825102618336,185.31462901599295 M502.5825102618336,185.31462901599295 L460.3608803039788,177.76991544775944 M460.3608803039788,177.76991544775944 L416.58651152842435,174.20733942518848 M416.58651152842435,174.20733942518848 L372.3855126235134,174.71790815543454 M372.3855126235134,174.71790815543454 L328.8947922769465,179.28858870387953 M328.8947922769465,179.28858870387953 L287.2333438684599,187.80260024042536 M287.2333438684599,187.80260024042536 L248.4740440814641,200.04230355153476 M248.4740440814641,200.04230355153476 L213.6165190253612,215.69454207118878 M213.6165190253612,215.69454207118878 L183.56161590852787,234.35832464094338 M183.56161590852787,234.35832464094338 L159.08837530753962,255.55481464521685 M159.08837530753962,255.55481464521685 L140.83370621121412,278.7392248074986 M140.83370621121412,278.7392248074986 L129.2756163742987,303.314511349432 M129.2756163742987,303.314511349432 L124.72032555838223,328.6464892055902 M124.72032555838223,328.6464892055902 L127.29354412977597,354.07999358391197 M127.29354412977597,354.07999358391197 L136.93654822170737,378.95578411774625 M136.93654822170737,378.95578411774625 L153.40674926413047,402.62765723675284 M153.40674926413047,402.62765723675284 L176.28334909250475,424.47937277874735 M176.28334909250475,424.47937277874735 L204.9775784687389,443.94094123996126" stroke="black"  stroke-width="4"  fill="red"/>
<path d="M596.6288868426187,362.91190822315093 L596.6398052104817,355.3285299055822 M596.6398052104817,355.3285299055822 L625.7017914489111,374.9371908884543 M625.7017914489111,374.9371908884543 L648.9422154110994,396.9809746381366 M648.9422154110994,396.9809746381366 L665.7554180684436,420.89309737752814 M665.7554180684436,420.89309737752814 L675.700121473349,446.05750582615497 M675.700121473349,446.05750582615497 L678.5114615615157,471.8244660566529 M678.5114615615157,471.8244660566529 L674.1085503501088,497.52721808167354 M674.1085503501088,497.52721808167354 L662.5974676746469,522.4991649020861 M662.5974676746469,522.4991649020861 L644.26927783613,546.0912137889316 M644.26927783613,546.0912137889316 L619.593246045657,567.6888539845979 M619.593246045657,567.6888539845979 L589.2052470559668,586.7284010789742 M589.2052470559668,586.7284010789742 L553.8916355551752,602.7120723947053 M553.8916355551752,602.7120723947053 L514.5689595499596,615.221339637914 M514.5689595499596,615.221339637914 L472.2599723309892,623.9282379199176 M472.2599723309892,623.9282379199176 L428.06677454623093,628.6042898396006 M428.06677454623093,628.6042898396006 L383.1415825397479,629.1267075599974 M383.1415825397479,629.1267075599974 L338.6560681811774,625.4817852738095 M338.6560681811774,625.4817852738095 L295.77024077549817,617.7652137020129 M295.77024077549817,617.7652137020129 L255.6015165987272,606.1795512475903 M255.6015165987272,606.1795512475903 L219.1951257018706,591.0286077984899 M219.1951257018706,591.0286077984899 L187.49654613531905,572.7092393498943 M187.49654613531905,572.7092393498943 L161.32673029489075,551.7006031046278 M161.32673029489075,551.7006031046278 L141.36084797127592,528.5512619933295 M141.36084797127592,528.5512619933295 L128.11106420650606,503.86450506827606 M128.11106420650606,503.86450506827606 L121.91387684090233,478.28234377665 M121.91387684090233,478.28234377665 L122.92193600749738,452.4686370532106 M122.92193600749738,452.4686370532106 L131.10104509394353,427.0917246836645 M131.10104509394353,427.0917246836645 L146.2317769979128,402.80718313500034 M146.2317769979128,402.80718313500034 L167.91600174576345,380.2410046067247 M167.91600174576345,380.2410046067247 L195.5877962787926,359.9736707479475 M195.5877962787926,359.9736707479475 L228.52857067464836,342.5255705390872 M228.52857067464836,342.5255705390872 L265.88586689841145,328.3439573085011 M265.88586689841145,328.3439573085011 L306.6953252402725,317.79184433384796 M306.6953252402725,317.79184433384796 L349.9053874761759,311.13904277086874 M349.9053874761759,311.13904277086874 L394.4039279254911,308.55552930018075 M394.4039279254911,308.55552930018075 L439.0463897582794,310.1072952328854 M439.0463897582794,310.1072952328854 L482.68459199025153,315.7546992559543 M482.68459199025153,315.7546992559543 L524.19561626297,325.3534762852275 M524.19561626297,325.3534762852275 L562.5102057566397,338.658243130494 M562.5102057566397,338.658243130494 L596.6398052104817,355.3285299055822 M596.6288868426187,362.91190822315093 L562.501184640719,346.2406845649604 M562.501184640719,346.2406845649604 L524.1887233825928,332.9351696551921 M524.1887233825928,332.9351696551921 L482.68000362881185,323.3358527519631 M482.68000362881185,323.3358527519631 L439.04422316313276,317.6881310256683 M439.04422316313276,317.6881310256683 L394.4042384316693,316.1362777868935 M394.4042384316693,316.1362777868935 L349.9081671542906,318.7199366100602 M349.9081671542906,318.7199366100602 L306.70050309042,325.373112419718 M306.70050309042,325.373112419718 L265.8933105864125,335.92581884438914 M265.8933105864125,335.92581884438914 L228.53808978011344,350.1082293608699 M228.53808978011344,350.1082293608699 L195.59914698347274,367.5573100450539 M195.59914698347274,367.5573100450539 L167.92889287128233,387.82578217735244 M167.92889287128233,387.82578217735244 L146.24587725956107,410.39322729837505 M146.24587725956107,410.39322729837505 L131.11599141390548,434.67913095721815 M131.11599141390548,434.67913095721815 L122.93734270147479,460.05746567665307 M122.93734270147479,460.05746567665307 L121.92934545871185,485.8726181508904 M121.92934545871185,485.8726181508904 L128.12619379325145,511.456211149562 M128.12619379325145,511.456211149562 L141.37524548040324,536.1443486551464 M141.37524548040324,536.1443486551464 L161.34002089456848,559.2949834627677 M161.34002089456848,559.2949834627677 L187.50838311180541,580.3047930126031 M187.50838311180541,580.3047930126031 L219.20519969701775,598.6251839843515 M219.20519969701775,598.6251839843515 L255.60956391034955,613.7769726913588 M255.60956391034955,613.7769726913588 L295.7760504762566,625.3632812463795 M295.7760504762566,625.3632812463795 L338.6594878402658,633.0802830283506 M338.6594878402658,633.0802830283506 L383.14252237392475,636.7254084904216 M383.14252237392475,636.7254084904216 L428.06520987316304,636.2029616506612 M428.06520987316304,636.2029616506612 L472.2559442416398,631.5266490697492 M472.2559442416398,631.5266490697492 L514.5625737871125,622.8192653362214 M514.5625737871125,622.8192653362214 L553.8830596276929,610.3093004239963 M553.8830596276929,610.3093004239963 L589.1947056785664,594.3247372916338 M589.1947056785664,594.3247372916338 L619.5810150516611,575.2841273310805 M619.5810150516611,575.2841273310805 L644.2556767416411,553.6852807479506 M644.2556767416411,553.6852807479506 L662.5828511202858,530.0919131990898 M662.5828511202858,530.0919131990898 L674.093298671094,505.1185695961168 M674.093298671094,505.1185695961168 L678.4959707552848,479.4143788461563 M678.4959707552848,479.4143788461563 L675.6847928444666,453.64597521173965 M675.6847928444666,453.64597521173965 L665.7406478243801,428.48015606427464 M665.7406478243801,428.48015606427464 L648.9283844858679,404.5666918683087 M648.9283844858679,404.5666918683087 L625.6892558027577,382.5216706461108 M625.6892558027577,382.5216706461108 L596.6288868426187,362.91190822315093 M205.18400457454973,588.4099337080039 L176.520079554236,568.9276363981985 M176.520079554236,568.9276363981985 L153.66760325280555,547.0526321473592 M153.66760325280555,547.0526321473592 L137.2147280256798,523.3555136664438 M137.2147280256798,523.3555136664438 L127.58181551865209,498.45317500083314 M127.58181551865209,498.45317500083314 L125.01120811721171,472.9925073354031 M125.01120811721171,472.9925073354031 L129.56157876066874,447.6334545754356 M129.56157876066874,447.6334545754356 L141.10736086698682,423.0318827633338 M141.10736086698682,423.0318827633338 L159.3426679000389,399.8226577241877 M159.3426679000389,399.8226577241877 L183.79000457195127,378.6034659000578 M183.79000457195127,378.6034659000578 L213.81313923920044,359.9196824874714 M213.81313923920044,359.9196824874714 L248.63385539558274,344.2506620402934 M248.63385539558274,344.2506620402934 L287.3522550731802,331.9978303119348 M287.3522550731802,331.9978303119348 L328.9697625223974,323.4746838143876 M328.9697625223974,323.4746838143876 L372.41462617716576,318.899098301162 M372.41462617716576,318.899098301162 L416.5690247415544,318.3879816204575 M416.5690247415544,318.3879816204575 L460.2972398371739,321.95438088660626 M460.2972398371739,321.95438088660626 L502.4743420978922,329.5071898956639 M502.4743420978922,329.5071898956639 L542.014436956251,340.85337532076466 M542.014436956251,340.85337532076466 L577.89821327661,355.7026966675031 M577.89821327661,355.7026966675031 L609.1988222747264,373.6748761465413 M609.1988222747264,373.6748761465413 L635.1056147144827,394.308987896219 M635.1056147144827,394.308987896219 L654.9451528392028,417.0749423957692 M654.9451528392028,417.0749423957692 L668.1988692987294,441.3867674764399 M668.1988692987294,441.3867674764399 L674.5170201107849,466.6173896615011 M674.5170201107849,466.6173896615011 L673.7283785624309,492.1146574495746 M673.7283785624309,492.1146574495746 L665.845440857871,517.2180309664466 M665.845440857871,517.2180309664466 L651.0649641646297,541.2757486120703 M651.0649641646297,541.2757486120703 L629.7635864424385,563.6618563020677 M629.7635864424385,563.6618563020677 L602.4887151007913,583.7926995513426 M602.4887151007913,583.7926995513426 L569.9448559605163,601.1424795549196 M569.9448559605163,601.1424795549196 L532.9754729690569,615.2572682609863 M532.9754729690569,615.2572682609863 L492.5411555805528,625.7672882175339 M492.5411555805528,625.7672882175339 L449.69439477986543,632.3969043586541 M449.69439477986543,632.3969043586541 L405.5517724865049,634.9721031951044 M405.5517724865049,634.9721031951044 L361.2643750536398,633.4252893826771 M361.2643750536398,633.4252893826771 L317.98711444780986,627.7970572088407 M317.98711444780986,627.7970572088407 L276.84802276079967,618.2351621538992 M276.84802276079967,618.2351621538992 L238.91830637690822,604.9904232218787 M238.91830637690822,604.9904232218787 L205.18400457454973,588.4099337080039 M205.18400457454973,588.4099337080039 L205.17315093783952,580.8139276021861 M205.17315093783952,580.8139276021861 L238.9093299692344,597.3934918989439 M238.9093299692344,597.3934918989439 L276.84115868301933,610.6374920770126 M276.84115868301933,610.6374920770126 L317.9825426834281,620.198853974945 M317.9825426834281,620.198853974945 L361.26221557864056,625.8267723968734 M361.26221557864056,625.8267723968734 L405.5520819996727,627.3734999895639 M405.5520819996727,627.3734999895639 L449.6971651542688,624.7984446974201 M449.6971651542688,624.7984446974201 L492.54631408406016,618.1691981480258 M492.54631408406016,618.1691981480258 L532.9828842515985,607.6597642575643 M532.9828842515985,607.6597642575643 L569.9543257401672,593.5457629131575 M569.9543257401672,593.5457629131575 L602.4999954371818,576.1969511744273 M602.4999954371818,576.1969511744273 L629.7763824366976,556.0672320140281 M629.7763824366976,556.0672320140281 L651.0789418778814,533.6823751233867 M651.0789418778814,533.6823751233867 L665.8602362232658,509.6260025903648 M665.8602362232658,509.6260025903648 L673.7436070241298,484.52403366007024 M673.7436070241298,484.52403366007024 L674.5322867219055,459.0281935530194 M674.5322867219055,459.0281935530194 L668.2137790057426,433.79898516538515 M668.2137790057426,433.79898516538515 L654.9593206757987,409.48852338249276 M654.9593206757987,409.48852338249276 L635.1186756481553,386.7238463718503 M635.1186756481553,386.7238463718503 L609.2104404651259,366.09089321728703 M609.2104404651259,366.09089321728703 L577.9080905224598,348.1197234346785 M577.9080905224598,348.1197234346785 L542.0223201418669,333.27123673745484 M542.0223201418669,333.27123673745484 L502.48002947173615,321.92568930096826 M502.48002947173615,321.92568930096826 L460.3005859896224,314.3733050981872 M460.3005859896224,314.3733050981872 L416.56994417946413,310.80710645590705 M416.56994417946413,310.80710645590705 L372.4130954154018,311.3181943830275 M372.4130954154018,311.3181943830275 L328.9658206615445,315.8935225093244 M328.9658206615445,315.8935225093244 L287.3460028412293,324.41618965211194 M287.3460028412293,324.41618965211194 L248.6254526783943,336.6683324707316 M248.6254526783943,336.6683324707316 L213.80280114969784,352.33647229239233 M213.80280114969784,352.33647229239233 L183.77799613320752,371.0192061696296 M183.77799613320752,371.0192061696296 L159.3292974637868,392.23720672791603 M159.3292974637868,392.23720672791603 L141.09297239879527,415.44512962221233 M141.09297239879527,415.44512962221233 L129.54654317065933,440.04532213439836 M129.54654317065933,440.04532213439836 L124.99591383562353,465.4029541621238 M124.99591383562353,465.4029541621238 L127.56665853516512,490.86219646065086 M127.56665853516512,490.86219646065086 L137.20010165167798,515.7631420421126 M137.20010165167798,515.7631420421126 L153.65388785502614,539.4589358031308 M153.65388785502614,539.4589358031308 L176.5076325473152,561.3327180095309 M176.5076325473152,561.3327180095309 L205.17315093783952,580.8139276021861" stroke="black"  stroke-width="4"  fill="red"/>
<path d="M596.9560498654726,362.7234407810996 L597.1750109577139,210.89590434364467 M202.38450215300767,590.0226314261095 L202.1640715351437,437.93972055118394 M596.9560498654726,362.7234407810996 L625.4053784940348,381.84275325202293 M625.4053784940348,381.84275325202293 L648.327427775543,403.29397789052155 M648.327427775543,403.29397789052155 L665.1543758207893,426.5527845917311 M665.1543758207893,426.5527845917311 L675.4665967665773,451.04955717680866 M675.4665967665773,451.04955717680866 L679.00343521814,476.1830933754213 M679.00343521814,476.1830933754213 L675.6703768752812,501.33522244445385 M675.6703768752812,501.33522244445385 L665.5419887668611,525.8859536685579 M665.5419887668611,525.8859536685579 L648.8609315490324,549.228802992938 M648.8609315490324,549.228802992938 L626.0325502842281,570.785927678852 M626.0325502842281,570.785927678852 L597.6154978469928,590.0226314261092 M597.6154978469928,590.0226314261092 L564.3082959035696,606.4609414874039 M564.3082959035696,606.4609414874039 L526.9322255303312,619.6917676884144 M526.9322255303312,619.6917676884144 L486.41105099983776,629.3854185498564 M486.41105099983776,629.3854185498564 L443.7478845276246,635.300119044738 M443.7478845276246,635.300119044738 L400.00000000000006,637.2882264533782 M400.00000000000006,637.2882264533782 L356.2521154723755,635.300119044738 M356.2521154723755,635.300119044738 L313.5889490001623,629.3854185498562 M313.5889490001623,629.3854185498562 L273.06777446966896,619.6917676884144 M273.06777446966896,619.6917676884144 L235.69170409643047,606.4609414874039 M235.69170409643047,606.4609414874039 L202.38450215300767,590.0226314261095 M597.1750109577139,210.89590434364467 L625.6560380875231,229.99367083970827 M625.6560380875231,229.99367083970827 L648.6036649154659,251.42073585598285 M648.6036649154659,251.42073585598285 L665.4494322093198,274.65336414085766 M665.4494322093198,274.65336414085766 L675.7732389366145,299.12258408168896 M675.7732389366145,299.12258408168896 L679.3141294667124,324.2278718431878 M679.3141294667124,324.2278718431878 L675.9774731513319,349.3517522670893 M675.9774731513319,349.3517522670893 L665.8379089170252,373.8749302433215 M665.8379089170252,373.8749302433215 L649.1383575563062,397.191600211387 M649.1383575563062,397.191600211387 L626.2846074772907,418.72456409096117 M626.2846074772907,418.72456409096117 L597.8359284648568,437.93972055118377 M597.8359284648568,437.93972055118377 L564.4916182143904,454.3596274361726 M564.4916182143904,454.3596274361726 L527.0738740861697,467.57564775554545 M527.0738740861697,467.57564775554545 L486.50749415007346,477.2584546265921 M486.50749415007346,477.2584546265921 L443.7967156704097,483.1665400372785 M443.7967156704097,483.1665400372785 L400.00000000000006,485.1524241756486 M400.00000000000006,485.1524241756486 L356.20328432959036,483.1665400372785 M356.20328432959036,483.1665400372785 L313.49250584992654,477.2584546265921 M313.49250584992654,477.2584546265921 L272.9261259138304,467.57564775554545 M272.9261259138304,467.57564775554545 L235.50838178560963,454.3596274361726 M235.50838178560963,454.3596274361726 L202.1640715351437,437.93972055118394 M202.38450215300767,590.0226314261095 L173.967449715772,570.785927678852 M173.967449715772,570.785927678852 L151.13906845096759,549.228802992938 M151.13906845096759,549.228802992938 L134.45801123313902,525.8859536685579 M134.45801123313902,525.8859536685579 L124.32962312471875,501.3352224444538 M124.32962312471875,501.3352224444538 L120.99656478186006,476.1830933754212 M120.99656478186006,476.1830933754212 L124.53340323342286,451.04955717680855 M124.53340323342286,451.04955717680855 L134.84562417921074,426.552784591731 M134.84562417921074,426.552784591731 L151.67257222445699,403.29397789052155 M151.67257222445699,403.29397789052155 L174.5946215059652,381.84275325202276 M174.5946215059652,381.84275325202276 L203.04395013452708,362.7234407810998 M203.04395013452708,362.7234407810998 L236.3188769693285,346.40252223795807 M236.3188769693285,346.40252223795807 L273.6012799950115,333.2775966271536 M273.6012799950115,333.2775966271536 L313.97656369808703,323.6679890171521 M313.97656369808703,323.6679890171521 L356.4558966637843,317.8072477063362 M356.4558966637843,317.8072477063362 L400,315.8377333187971 M400,315.8377333187971 L443.5441033362157,317.8072477063362 M443.5441033362157,317.8072477063362 L486.023436301913,323.6679890171521 M486.023436301913,323.6679890171521 L526.3987200049886,333.2775966271536 M526.3987200049886,333.2775966271536 L563.6811230306716,346.40252223795807 M563.6811230306716,346.40252223795807 L596.9560498654726,362.7234407810996 M202.1640715351437,437.93972055118394 L173.71539252270935,418.72456409096105 M173.71539252270935,418.72456409096105 L150.86164244369377,397.1916002113869 M150.86164244369377,397.1916002113869 L134.16209108297483,373.8749302433214 M134.16209108297483,373.8749302433214 L124.02252684866812,349.3517522670892 M124.02252684866812,349.3517522670892 L120.68587053328753,324.2278718431877 M120.68587053328753,324.2278718431877 L124.22676106338542,299.1225840816889 M124.22676106338542,299.1225840816889 L134.55056779068025,274.65336414085766 M134.55056779068025,274.65336414085766 L151.39633508453417,251.42073585598277 M151.39633508453417,251.42073585598277 L174.34396191247689,229.9936708397081 M174.34396191247689,229.9936708397081 L202.82498904228572,210.89590434364487 M202.82498904228572,210.89590434364487 L236.1369522629127,194.59338766508293 M236.1369522629127,194.59338766508293 L273.4608203143403,181.48326675297665 M273.4608203143403,181.48326675297665 L313.88098431730145,171.8845021948449 M313.88098431730145,171.8845021948449 L356.40751963184323,166.03037536577494 M356.40751963184323,166.03037536577494 L400,164.06308404093852 M400,164.06308404093852 L443.5924803681568,166.03037536577494 M443.5924803681568,166.03037536577494 L486.11901568269866,171.8845021948449 M486.11901568269866,171.8845021948449 L526.5391796856596,181.48326675297665 M526.5391796856596,181.48326675297665 L563.8630477370873,194.59338766508293 M563.8630477370873,194.59338766508293 L597.1750109577139,210.89590434364467 M202.71385782531695,589.8329008736046 L202.4937952015861,437.75020245927374 M596.6288868426187,362.91190822315093 L596.8474848268795,211.08415933921776 M202.71385782531695,589.8329008736046 L174.3440693967895,570.6282969135424 M174.3440693967895,570.6282969135424 L151.553589684616,549.1071372899378 M151.553589684616,549.1071372899378 L134.90016360087486,525.8031938726434 M134.90016360087486,525.8031938726434 L124.78847450032742,501.2933526103973 M124.78847450032742,501.2933526103973 L121.4607872861879,476.1830933754212 M121.4607872861879,476.1830933754212 L124.99157700772764,451.09136518344155 M124.99157700772764,451.09136518344155 L135.28648773769874,426.6353031547881 M135.28648773769874,426.6353031547881 L152.08531958391663,403.415122935575 M152.08531958391663,403.415122935575 L174.9691557957649,381.99951120050713 M174.9691557957649,381.99951120050713 L203.37111315738096,362.91190822315116 M203.37111315738096,362.91190822315116 L236.5907113586924,346.6180536910662 M236.5907113586924,346.6180536910662 L273.8111442532887,333.51487676914223 M273.8111442532887,333.51487676914223 L314.11937562921025,323.92118760887524 M314.11937562921025,323.92118760887524 L356.52818772762674,318.0701531276518 M356.52818772762674,318.0701531276518 L400,316.1038974099583 M400,316.1038974099583 L443.4718122723733,318.0701531276518 M443.4718122723733,318.0701531276518 L485.88062437078975,323.92118760887524 M485.88062437078975,323.92118760887524 L526.1888557467113,333.51487676914223 M526.1888557467113,333.51487676914223 L563.4092886413076,346.6180536910662 M563.4092886413076,346.6180536910662 L596.6288868426187,362.91190822315093 M202.4937952015861,437.75020245927374 L174.09243276931178,418.567109939971 M174.09243276931178,418.567109939971 L151.27662627424652,397.07007091208675 M151.27662627424652,397.07007091208675 L134.60473654525902,373.7922632954745 M134.60473654525902,373.7922632954745 L124.48188957275107,349.3099294403264 M124.48188957275107,349.3099294403264 L121.1506099891792,324.2278718431877 M121.1506099891792,324.2278718431877 L124.68544467618949,299.1643450817197 M124.68544467618949,299.1643450817197 L134.99192157171615,274.7357898585454 M134.99192157171615,274.7357898585454 L151.8095410879672,251.54174450315887 M151.8095410879672,251.54174450315887 L174.7189121207336,230.15025218363093 M174.7189121207336,230.15025218363093 L203.1525151731201,211.08415933921793 M203.1525151731201,211.08415933921793 L236.4090882073994,194.80867604931467 M236.4090882073994,194.80867604931467 L273.67091729190525,181.72027919687366 M273.67091729190525,181.72027919687366 L314.023954568179,172.13741504983835 M314.023954568179,172.13741504983835 L356.47989082291247,166.2929840457557 M356.47989082291247,166.2929840457557 L400,164.32894769556893 M400,164.32894769556893 L443.5201091770876,166.2929840457557 M443.5201091770876,166.2929840457557 L485.976045431821,172.13741504983835 M485.976045431821,172.13741504983835 L526.3290827080949,181.72027919687366 M526.3290827080949,181.72027919687366 L563.5909117926007,194.80867604931467 M563.5909117926007,194.80867604931467 L596.8474848268795,211.08415933921776 M596.6288868426187,362.91190822315093 L625.0308442042351,381.99951120050713 M625.0308442042351,381.99951120050713 L647.9146804160835,403.4151229355751 M647.9146804160835,403.4151229355751 L664.7135122623014,426.6353031547881 M664.7135122623014,426.6353031547881 L675.0084229922724,451.09136518344155 M675.0084229922724,451.09136518344155 L678.5392127138122,476.1830933754213 M678.5392127138122,476.1830933754213 L675.2115254996727,501.2933526103974 M675.2115254996727,501.2933526103974 L665.0998363991253,525.8031938726435 M665.0998363991253,525.8031938726435 L648.4464103153841,549.1071372899378 M648.4464103153841,549.1071372899378 L625.6559306032105,570.6282969135425 M625.6559306032105,570.6282969135425 L597.2861421746835,589.8329008736043 M597.2861421746835,589.8329008736043 L564.0343761157997,606.2437565589798 M564.0343761157997,606.2437565589798 L526.7205873862347,619.4524819653516 M526.7205873862347,619.4524819653516 L486.26695024783623,629.1299349434591 M486.26695024783623,629.1299349434591 L443.6749158552901,635.0347491952175 M443.6749158552901,635.0347491952175 L400.00000000000006,637.0195361404744 M400.00000000000006,637.0195361404744 L356.32508414471,635.0347491952175 M356.32508414471,635.0347491952175 L313.7330497521639,629.1299349434591 M313.7330497521639,629.1299349434591 L273.2794126137655,619.4524819653516 M273.2794126137655,619.4524819653516 L235.96562388420048,606.2437565589798 M235.96562388420048,606.2437565589798 L202.71385782531695,589.8329008736046 M596.8474848268795,211.08415933921776 L625.2810878792666,230.15025218363093 M625.2810878792666,230.15025218363093 L648.1904589120328,251.54174450315904 M648.1904589120328,251.54174450315904 L665.0080784282839,274.7357898585454 M665.0080784282839,274.7357898585454 L675.3145553238105,299.1643450817197 M675.3145553238105,299.1643450817197 L678.8493900108209,324.2278718431877 M678.8493900108209,324.2278718431877 L675.518110427249,349.3099294403264 M675.518110427249,349.3099294403264 L665.395263454741,373.79226329547464 M665.395263454741,373.79226329547464 L648.7233737257536,397.07007091208686 M648.7233737257536,397.07007091208686 L625.9075672306883,418.567109939971 M625.9075672306883,418.567109939971 L597.5062047984144,437.75020245927345 M597.5062047984144,437.75020245927345 L564.2173922243378,454.14268559509753 M564.2173922243378,454.14268559509753 L526.8619992698027,467.3366297529734 M526.8619992698027,467.3366297529734 L486.36323220626525,477.0032567824387 M486.36323220626525,477.0032567824387 L443.7236653608414,482.90146695660565 M443.7236653608414,482.90146695660565 L400.00000000000006,484.884034327477 M400.00000000000006,484.884034327477 L356.2763346391587,482.90146695660565 M356.2763346391587,482.90146695660565 L313.63676779373486,477.0032567824387 M313.63676779373486,477.0032567824387 L273.1380007301973,467.3366297529734 M273.1380007301973,467.3366297529734 L235.7826077756623,454.14268559509753 M235.7826077756623,454.14268559509753 L202.4937952015861,437.75020245927374" stroke="black"  stroke-width="4"  fill="red"/></svg>