<svg version="1.1" xmlns="http://www.w3.org/2000/svg" viewBox="-301.00000100000005 -303.68400219728045 602.0000020000001 607.3680043945608" fill="none" stroke="black" stroke-width="0.6%" vector-effect="non-scaling-stroke">
    <path d="M -70.71068 -285.7738 A 100 57.73503 360 1 1 -87.75826 -272.62862 A 100 57.73503 360 0 1 100 -244.94897 A 100 57.73503 360 1 1 -87.75826 -272.62862 A 100 57.73503 360 1 1 -100 -244.94897 A 100 57.73503 360 0 1 -87.75826 -272.62862 A 100 57.73503 360 0 1 -70.71068 -285.7738 Z" />
    <path d="M -100 244.94897 A 100 57.73503 180 1 0 87.75826 217.26933 A 100 57.73503 180 1 0 100 244.94897" />
    <path d="M 67.17514 -206.16539 A 95 54.84828 180 0 0 83.37034 -271.24464 A 95 54.84828 180 1 0 95 -244.94897 A 95 54.84828 180 0 0 83.37034 -271.24464 A 95 54.84828 180 0 0 -95 -244.94897 A 95 54.84828 180 1 0 83.37034 -271.24464 A 95 54.84828 180 1 0 67.17514 -206.16539 Z" />
    <path d="M -112.13203 -194.21838 A 158.57864 91.55542 360 1 1 -139.16585 -173.37293 A 158.57864 91.55542 360 0 1 -100 -200.53567" />
    <path d="M 100 -200.53567 A 158.57864 91.55542 360 1 1 -139.16585 -173.37293 A 158.57864 91.55542 360 0 1 158.57864 -129.47892 A 158.57864 91.55542 360 1 1 -139.16585 -173.37293 A 158.57864 91.55542 360 1 1 -158.57864 -129.47892 A 158.57864 91.55542 360 0 1 -139.16585 -173.37293 A 158.57864 91.55542 360 0 1 -112.13203 -194.21838" />
    <path d="M 108.5965 -66.7807 A 153.57864 88.66867 180 0 0 134.77794 -171.98895 A 153.57864 88.66867 180 1 0 153.57864 -129.47892 A 153.57864 88.66867 180 0 0 134.77794 -171.98895 A 153.57864 88.66867 180 0 0 100 -196.77528" />
    <path d="M -100 -196.77528 A 153.57864 88.66867 180 1 0 134.77794 -171.98895 A 153.57864 88.66867 180 0 0 -153.57864 -129.47892 A 153.57864 88.66867 180 1 0 134.77794 -171.98895 A 153.57864 88.66867 180 1 0 108.5965 -66.7807" />
    <path d="M -212.13203 -204.12415 A 300 173.20508 360 1 1 -263.27477 -164.6886 A 300 173.20508 360 0 1 -100 -244.94897 L -100 -62.18256" />
    <path d="M 100 -244.94897 A 300 173.20508 360 1 1 -263.27477 -164.6886 A 300 173.20508 360 0 1 300 -81.64966 L 300 81.64966" />
    <path d="M 300 -81.64966 A 300 173.20508 360 1 1 -263.27477 -164.6886 A 300 173.20508 360 1 1 -300 -81.64966 L -300 81.64966 A 300 173.20508 180 1 0 263.27477 -1.38928 A 300 173.20508 180 1 0 300 81.64966" />
    <path d="M -300 -81.64966 A 300 173.20508 360 0 1 -263.27477 -164.6886 A 300 173.20508 360 0 1 -212.13203 -204.12415" />
    <path d="M -258.89187 0 A 295 170.31833 360 0 1 -258.88686 -0.0053 A 295 170.31833 360 0 1 -158.57864 -61.96767" />
    <path d="M 158.57864 -61.96767 A 295 170.31833 360 1 1 -258.88686 -0.0053 A 295 170.31833 360 0 1 258.89187 0" />
    <path d="M 208.5965 38.78359 A 295 170.31833 180 0 0 258.88686 -163.30461 A 295 170.31833 180 1 0 295 -81.64966 A 295 170.31833 180 0 0 258.88686 -163.30461 A 295 170.31833 180 0 0 100 -241.88386" />
    <path d="M -100 -241.88386 A 295 170.31833 180 1 0 258.88686 -163.30461 A 295 170.31833 180 0 0 -295 -81.64966 A 295 170.31833 180 1 0 258.88686 -163.30461 A 295 170.31833 180 1 0 208.5965 38.78359" />
    <path d="M 100 -244.94897 L 100 -62.18256" />
    <path d="M -158.57864 -129.47892 L -158.57864 61.96767" />
    <path d="M 158.57864 -129.47892 L 158.57864 61.96767" />
</svg>